<svg width="480" height="627" viewBox="0 0 480 627" fill="none" xmlns="http://www.w3.org/2000/svg">
<path d="M480 626.337H0V620.337H480V626.337ZM480 592.337H0V586.337H480V592.337ZM480 558.337H0V552.337H480V558.337ZM294.5 508.337C307.509 508.337 322.008 513.002 327.289 514.442C330.194 515.235 332.666 516.127 337.349 516.897C342.031 517.668 348.911 518.303 360.204 518.401C371.574 518.5 424.757 518.5 475.127 518.476C476.755 518.475 478.38 518.472 480 518.472V524.472C478.381 524.472 476.757 524.475 475.13 524.476C424.782 524.5 371.556 524.501 360.151 524.401C348.672 524.301 341.462 523.655 336.374 522.817C331.286 521.98 328.305 520.939 325.71 520.231C319.991 518.672 306.491 514.337 294.5 514.337C282.002 514.337 264.655 514.383 245.909 519.024C236.224 521.422 228.297 522.764 222.773 523.507C220.012 523.878 217.85 524.1 216.369 524.229C215.629 524.294 215.058 524.337 214.668 524.362C214.473 524.375 214.323 524.384 214.219 524.39C214.167 524.392 214.127 524.394 214.099 524.395C214.084 524.396 214.073 524.397 214.064 524.397C214.06 524.398 214.056 524.398 214.054 524.398H214.049L213.912 521.401L214.048 524.398L213.979 524.401H0V518.401H213.832C213.847 518.401 213.866 518.4 213.887 518.398C213.97 518.394 214.099 518.386 214.273 518.375C214.622 518.352 215.15 518.314 215.847 518.253C217.24 518.131 219.309 517.919 221.974 517.561C227.304 516.843 235.016 515.54 244.468 513.2C263.995 508.366 281.998 508.337 294.5 508.337ZM188.97 473.385C201.028 470.782 213.619 472.015 224.91 477.039C231.249 479.859 237.358 482.48 243.667 483.213C245.975 483.481 248.834 483.745 252.37 483.982C260.832 484.551 340.861 484.554 419.028 484.409C439.983 484.37 460.782 484.32 480 484.269V490.269C460.785 490.32 439.99 490.37 419.039 490.409C341.091 490.553 260.703 490.556 251.968 489.969C248.353 489.726 245.396 489.454 242.976 489.173C235.619 488.319 228.702 485.293 222.472 482.52C212.364 478.023 201.072 476.91 190.236 479.249C178.673 481.745 163.822 484.862 153.653 486.669C144.114 488.364 136.491 489.191 131.234 489.594C128.606 489.795 126.569 489.891 125.179 489.936C124.484 489.959 123.95 489.968 123.586 489.973C123.404 489.975 123.264 489.975 123.167 489.976H0V483.976H123.157C123.234 483.975 123.354 483.975 123.516 483.974C123.839 483.97 124.331 483.961 124.983 483.939C126.289 483.897 128.238 483.806 130.775 483.611C135.85 483.222 143.275 482.418 152.604 480.761C162.652 478.975 177.404 475.881 188.97 473.385ZM261.954 439.796C273.537 432.534 289.139 426.229 302.748 433.315C304.226 434.085 305.793 434.889 307.453 435.729C314.705 439.399 321.384 442.418 326.899 444.758C336.467 448.816 346.888 450.489 357.458 450.489H480V456.489H357.458C346.27 456.489 335.02 454.72 324.557 450.281C318.939 447.898 312.135 444.823 304.744 441.083C303.064 440.233 301.476 439.417 299.978 438.637C289.503 433.182 276.565 437.717 265.142 444.879C262.888 446.292 259.309 447.981 255.65 449.576C244.333 454.511 232.075 456.489 219.911 456.489H0V450.489H219.911C231.443 450.489 242.85 448.613 253.252 444.077C256.916 442.48 260.121 440.945 261.954 439.796ZM290.23 372.522C307.595 367.432 326.163 368.289 342.985 374.955C347.34 376.681 351.847 377.996 356.446 378.883L356.859 378.963C361.833 379.922 366.888 380.405 371.953 380.405H480V386.405H371.953C366.506 386.405 361.071 385.886 355.723 384.854L355.31 384.774C350.343 383.816 345.477 382.396 340.775 380.533C325.196 374.359 308 373.566 291.918 378.28L282.658 380.995L282.582 381.018L282.505 381.035L271.487 383.641C263.72 385.477 255.766 386.405 247.784 386.405H0V380.405H247.784C255.301 380.405 262.792 379.531 270.106 377.802L281.054 375.212L290.23 372.522ZM480 360.337H0V354.337H480V360.337ZM480 334.337H0V328.337H480V334.337ZM186.353 283.973C192.71 281.913 199.405 280.469 204.527 281.384C212.203 282.754 217.699 286.328 221.391 289.678C223.232 291.349 224.625 292.964 225.617 294.217C226.112 294.841 226.509 295.379 226.796 295.766C227.076 296.144 227.162 296.251 227.155 296.249L227.428 296.514C230.634 299.549 234.965 301.084 240.064 301.812C245.374 302.57 251.064 302.405 256.691 302.405H480V308.405H256.691C251.341 308.405 245.067 308.587 239.216 307.752C233.319 306.91 227.408 304.987 222.879 300.458C222.552 300.131 222.174 299.607 221.974 299.336C221.686 298.948 221.341 298.481 220.914 297.941C220.062 296.866 218.893 295.512 217.359 294.121C214.301 291.346 209.797 288.42 203.473 287.291C199.933 286.659 194.485 287.645 188.202 289.681C182.062 291.67 175.627 294.486 170.357 297.014C162.677 300.698 154.642 303.949 146.181 305.95C139.281 307.582 132.215 308.405 125.126 308.405H0V302.405H125.126C131.751 302.405 138.353 301.635 144.8 300.11C152.688 298.245 160.295 295.186 167.763 291.604C173.148 289.021 179.852 286.078 186.353 283.973ZM196.1 253.974C205.381 253.173 213.794 254.928 222.479 259.139C231.115 263.325 234.878 267.284 238.53 270.171C241.968 272.887 245.863 275.205 255.675 276.88C275.021 280.183 295.524 281.038 313.963 274.892C321.382 272.294 340.111 268.156 356.376 272.515C371.107 276.462 378.486 276.116 381.106 276.337H480V282.337H380.834L380.668 282.318C378.977 282.13 370.583 282.533 354.823 278.311C340.184 274.388 322.753 278.16 315.906 280.567L315.884 280.576L315.86 280.584C296.061 287.184 274.419 286.167 254.665 282.794C243.977 280.969 239.122 278.286 234.81 274.878C230.712 271.64 227.725 268.349 219.861 264.537C212.046 260.748 204.709 259.253 196.615 259.951C188.44 260.657 179.314 263.615 167.965 269.043C155.6 274.956 143.569 273.817 133.415 272.304C128.228 271.53 123.739 270.697 119.599 270.457C115.51 270.22 112.233 270.609 109.551 272C102.389 275.713 92.7046 278.147 84.0117 279.721C75.2577 281.305 67.2243 282.067 63.1963 282.331L63.0986 282.337H0V276.337H62.8975C66.7806 276.079 74.5255 275.34 82.9434 273.816C91.4904 272.269 100.451 269.96 106.789 266.674C110.857 264.564 115.393 264.203 119.945 264.467C124.445 264.727 129.425 265.643 134.3 266.37C144.271 267.856 154.74 268.717 165.376 263.631C177.027 258.059 186.9 254.767 196.1 253.974ZM166.886 217.337C170.577 217.337 174.977 218.983 179.365 221.18C183.86 223.43 188.774 226.486 193.616 229.749C198.469 233.019 203.317 236.541 207.678 239.744C212.067 242.968 215.917 245.833 218.87 247.865L218.969 247.934L219.062 248.009C228.764 255.892 244.124 261.337 262.17 261.337C271.028 261.337 282.229 258.838 292.219 255.977C302.13 253.137 310.479 250.056 313.916 248.907C321.303 246.31 340.076 242.147 356.375 246.515C371.118 250.465 378.498 250.115 381.112 250.337H480V256.337H380.833L380.667 256.318C378.975 256.13 370.581 256.533 354.822 252.311C340.183 248.388 322.754 252.16 315.906 254.567L315.883 254.576L315.859 254.584C312.679 255.644 303.988 258.847 293.871 261.745C283.787 264.634 271.912 267.337 262.17 267.337C243.071 267.337 226.339 261.607 215.373 252.742C212.333 250.646 208.405 247.723 204.126 244.58C199.773 241.383 195.008 237.922 190.264 234.725C185.509 231.521 180.84 228.628 176.68 226.545C172.413 224.409 169.085 223.337 166.886 223.337C161.932 223.337 158.589 225.152 154.236 228.176C149.866 231.211 144.541 235.438 136.202 239.086C127.436 242.921 120.522 242.203 114.833 241.498C109.111 240.789 105.315 240.272 101.076 242.89C95.5536 246.301 88.1769 249.506 81.2373 251.918C74.3481 254.313 67.5492 256.044 63.1963 256.33L63.0977 256.337H0V250.337H62.8848C66.4243 250.088 72.5627 248.581 79.2666 246.251C85.972 243.92 92.9055 240.883 97.9229 237.784C104.224 233.892 110.179 234.876 115.571 235.544C120.997 236.216 126.563 236.753 133.797 233.589C141.458 230.237 146.186 226.463 150.813 223.248C155.458 220.022 160.059 217.337 166.886 217.337ZM151.806 136.522C158.971 134.347 166.661 134.645 173.637 137.37L179.653 139.721C182.679 140.902 185.587 142.366 188.34 144.09L239.13 175.905C241.647 177.482 244.352 178.738 247.182 179.644C253.85 181.777 260.999 181.899 267.735 179.992L273.086 178.478L298.764 169.257L298.854 169.225L298.947 169.198L305.506 167.308C313.856 164.902 322.695 164.745 331.126 166.853C334.133 167.604 337.062 168.638 339.875 169.939L346.857 173.17C353.303 176.152 360.129 178.235 367.142 179.359C371.2 180.01 375.304 180.337 379.415 180.337H480V186.337H379.415C374.986 186.337 370.564 185.984 366.191 185.283C358.636 184.072 351.283 181.828 344.338 178.615L337.355 175.385C334.885 174.242 332.311 173.333 329.67 172.673C322.265 170.822 314.502 170.96 307.168 173.073L300.711 174.933L275.014 184.16L274.917 184.195L274.817 184.224L269.369 185.766C261.498 187.993 253.144 187.852 245.353 185.358C242.047 184.3 238.886 182.833 235.944 180.99L185.154 149.174C182.719 147.649 180.147 146.355 177.471 145.31L171.453 142.959C165.732 140.724 159.426 140.479 153.549 142.264C149.051 143.629 144.802 146.105 140.626 148.95C136.451 151.795 129.946 155.788 120.137 160.856C109.603 166.299 99.3718 170.599 91.7812 173.538C87.983 175.009 84.8387 176.141 82.6396 176.907C81.5399 177.29 80.6756 177.582 80.084 177.778C79.7882 177.877 79.5605 177.951 79.4053 178.002C79.3278 178.027 79.2683 178.046 79.2275 178.06C79.2073 178.066 79.1916 178.072 79.1807 178.075C79.1784 178.076 79.1757 178.076 79.1738 178.076L70.3975 181.014C59.8615 184.539 48.824 186.337 37.7139 186.337H0V180.337H37.7139C48.1768 180.337 58.5709 178.644 68.4932 175.324L77.2988 172.378L77.3398 172.364L77.3418 172.363C77.3434 172.363 77.3462 172.362 77.3496 172.361C77.3577 172.359 77.3712 172.354 77.3887 172.349C77.4237 172.337 77.4773 172.32 77.5488 172.297C77.6921 172.25 77.9074 172.179 78.1904 172.085C78.7569 171.897 79.5946 171.614 80.666 171.241C82.8092 170.495 85.8889 169.386 89.6152 167.943C97.0741 165.056 107.096 160.84 117.383 155.525C127.015 150.549 133.305 146.677 137.247 143.991C141.593 141.03 146.437 138.152 151.806 136.522ZM150.106 103.039C158.373 100.529 167.244 100.873 175.291 104.017L178.604 105.311C182.379 106.786 185.955 108.726 189.25 111.085L246.8 152.294C249.59 154.292 252.675 155.842 255.943 156.888C262.114 158.862 268.731 158.974 274.965 157.21L281.064 155.482L302.714 147.275L302.829 147.231L302.947 147.198L309.506 145.308C317.856 142.902 326.694 142.745 335.125 144.853C338.132 145.604 341.061 146.638 343.874 147.939L354.458 152.836C358.563 154.735 362.872 156.161 367.301 157.084C371.296 157.917 375.366 158.337 379.447 158.337H480V164.337H379.447C374.955 164.337 370.474 163.875 366.076 162.958C361.201 161.942 356.458 160.372 351.938 158.281L341.354 153.385C338.884 152.242 336.311 151.333 333.67 150.673C326.265 148.822 318.502 148.96 311.167 151.073L304.729 152.928L283.063 161.143L282.942 161.188L282.817 161.224L276.599 162.983C269.23 165.069 261.409 164.937 254.115 162.603C250.252 161.366 246.605 159.534 243.307 157.172L185.757 115.963C182.867 113.894 179.731 112.193 176.421 110.9L173.107 109.605C166.315 106.952 158.827 106.662 151.85 108.78C148.322 109.851 145.001 111.515 142.031 113.7L130.285 122.344L130.226 122.388L130.164 122.429L88.6348 149.942H88.6338C82.6307 153.919 76.1543 157.131 69.3555 159.504C60.1893 162.703 50.5501 164.337 40.8418 164.337H0V158.337H40.8418C49.877 158.337 58.8483 156.817 67.3789 153.84C73.7064 151.632 79.7334 148.642 85.3203 144.94L126.78 117.473L138.476 108.867C141.994 106.278 145.927 104.308 150.106 103.039ZM167.171 43.3017C174.565 38.1245 184.421 38.1728 191.765 43.4218C192.944 44.2647 194.034 45.2258 195.018 46.29L209.058 61.4775L209.162 61.5908L209.255 61.7138C212.931 66.6155 218.284 69.4742 224.686 71.5537C227.884 72.5925 231.268 73.4137 234.764 74.2119C238.219 75.0007 241.83 75.7769 245.288 76.7002C246.279 76.9649 247.26 77.3056 248.212 77.7363C253.986 80.3483 258.075 84.685 260.651 88.1728C262.004 90.003 263.251 91.9198 264.438 93.7031C265.645 95.5185 266.811 97.2278 268.086 98.8144C274.537 106.842 282.689 113.039 291.41 111.974C292.213 111.875 292.904 111.727 293.476 111.537C296.085 110.667 298.713 108.683 300.808 106.718C301.825 105.763 302.66 104.868 303.236 104.214C303.524 103.888 303.745 103.624 303.891 103.447C303.963 103.359 304.017 103.292 304.051 103.25C304.067 103.229 304.079 103.214 304.086 103.206C304.088 103.203 304.09 103.201 304.091 103.199L304.129 103.15L304.17 103.103L311.911 93.9531C313.936 91.5604 316.418 89.5964 319.213 88.1767C327.658 83.8863 337.854 85.081 345.078 91.208L347.844 93.5537C349.528 94.9817 351.043 96.598 352.359 98.3701L353.288 99.6201C359.808 108.394 369.914 113.79 380.832 114.325L381.068 114.337H480V120.337H380.927L380.854 120.333L380.538 120.318C367.827 119.695 356.062 113.413 348.472 103.198L347.544 101.949C346.5 100.544 345.298 99.2623 343.963 98.1299L341.197 95.7842C335.816 91.2202 328.222 90.3304 321.931 93.5263C319.849 94.5838 318 96.0468 316.492 97.8291L308.779 106.942C308.768 106.957 308.755 106.975 308.739 106.994C308.688 107.058 308.616 107.148 308.523 107.261C308.339 107.485 308.073 107.801 307.736 108.183C307.064 108.945 306.098 109.981 304.913 111.093C302.603 113.26 299.214 115.948 295.373 117.228C294.332 117.576 293.232 117.795 292.138 117.929C280.079 119.402 270.071 110.863 263.408 102.572C261.95 100.758 260.657 98.8524 259.442 97.0263C258.206 95.1683 257.065 93.4169 255.825 91.7383C253.59 88.7128 250.24 85.2395 245.738 83.2031C245.27 82.9912 244.778 82.8061 244.263 82.6474L243.74 82.497C240.422 81.6111 236.989 80.8744 233.428 80.0615C229.908 79.2579 226.302 78.3879 222.832 77.2607C215.946 75.0241 209.293 71.6811 204.56 65.4492L190.612 50.3633C189.906 49.5988 189.122 48.908 188.275 48.3027C183.001 44.5328 175.923 44.4985 170.612 48.2168L168.058 50.0039C168.052 50.0082 168.047 50.0135 168.04 50.0185C167.991 50.0562 167.916 50.115 167.815 50.1943C167.614 50.3529 167.313 50.5939 166.923 50.9131C166.143 51.5516 165.01 52.5033 163.625 53.7383C160.852 56.21 157.079 59.8058 153.09 64.2871C151.116 66.5044 149.252 68.8496 147.379 71.2275C145.525 73.5816 143.646 75.9882 141.721 78.209C140.909 79.1455 140.071 80.0644 139.206 80.9531C150.099 73.8241 164.029 73.027 175.71 78.9795C179.342 80.8301 182.638 83.277 185.46 86.2177L194.342 95.4726C199.574 100.924 206 105.088 213.114 107.634L213.702 107.844C221.915 110.783 229.264 115.727 235.08 122.228L236.854 124.212C240.007 127.736 243.865 130.559 248.177 132.499C254.697 135.433 261.979 136.224 268.977 134.76L269.983 134.549C274.064 133.695 277.971 132.156 281.539 129.999L291.652 123.884C294.121 122.391 296.735 121.15 299.452 120.18C309.898 116.449 321.381 116.892 331.509 121.417L338.027 124.33L338.146 124.383L338.261 124.446L348.121 129.925C354.594 133.521 361.754 135.705 369.13 136.337H480V142.337H368.876L368.751 142.326C360.484 141.637 352.459 139.197 345.208 135.169L335.456 129.752L329.061 126.895C320.344 123.001 310.461 122.619 301.47 125.83C299.131 126.665 296.882 127.734 294.757 129.019L284.644 135.134C280.497 137.641 275.956 139.429 271.213 140.422L270.206 140.632C261.966 142.356 253.391 141.425 245.714 137.971C240.637 135.686 236.096 132.361 232.384 128.212L230.608 126.228C225.459 120.473 218.952 116.095 211.681 113.493L211.093 113.282C203.104 110.423 195.888 105.75 190.013 99.6279L181.131 90.372C178.773 87.9154 176.02 85.8711 172.986 84.3252C162.776 79.1223 150.51 80.0923 141.244 86.8349L134.753 91.5576L118.631 104.58C113.644 108.608 108.293 112.162 102.646 115.194L86.667 123.774L75.5996 131.311C68.671 136.028 60.8778 139.329 52.6689 141.023C48.4387 141.897 44.13 142.337 39.8105 142.337H0V136.337H39.8105C43.7223 136.337 47.6241 135.938 51.4551 135.147C58.8895 133.613 65.9477 130.623 72.2227 126.351L83.4219 118.726L83.5527 118.637L83.6914 118.562L99.8066 109.908C105.125 107.052 110.165 103.705 114.861 99.9121L129.699 87.9258C129.163 88.1594 128.616 88.3734 128.057 88.5634C124.365 89.8173 119.395 90.0724 114.723 89.9619C104.015 89.7086 93.6969 93.8853 88.0186 102.338C86.6535 104.37 85.0579 106.238 83.2646 107.904L82.3184 108.784C74.5555 115.997 64.4009 120.088 53.8057 120.271L50.0518 120.337H0V114.337H50L53.7021 114.272C62.8182 114.115 71.5553 110.595 78.2344 104.389L79.1807 103.509C80.6357 102.157 81.9305 100.641 83.0381 98.9922C90.1379 88.4236 102.664 83.6753 114.864 83.9638C119.424 84.0717 123.495 83.7765 126.127 82.8828C130.071 81.5434 133.535 78.4894 137.188 74.2773C138.999 72.1881 140.778 69.9118 142.666 67.5146C144.535 65.1413 146.5 62.6657 148.607 60.2978C152.781 55.6089 156.727 51.8505 159.633 49.2597C161.087 47.9634 162.284 46.9563 163.123 46.2695C163.543 45.9262 163.873 45.6626 164.102 45.4824C164.216 45.3925 164.304 45.3233 164.366 45.2754C164.397 45.2514 164.422 45.232 164.439 45.2187C164.448 45.2123 164.455 45.2069 164.46 45.2031C164.462 45.2012 164.464 45.1995 164.466 45.1982C164.467 45.1976 164.468 45.1977 164.469 45.1972V45.1963C164.469 45.196 164.469 45.1959 166.068 47.2959L164.47 45.1953L164.518 45.1592L164.566 45.125L167.171 43.3017ZM157.77 3.94138C165.433 -1.26941 175.489 -1.31712 183.202 3.82029L186.006 5.68747L186.055 5.7197L186.103 5.75486L186.104 5.75583C186.104 5.75629 186.106 5.75618 186.106 5.75681C186.108 5.758 186.11 5.7599 186.112 5.76169C186.118 5.76551 186.125 5.77088 186.134 5.77732C186.152 5.79046 186.178 5.80913 186.21 5.83298C186.275 5.88069 186.368 5.95017 186.487 6.04001C186.727 6.21977 187.074 6.48318 187.515 6.82615C188.395 7.51193 189.653 8.51732 191.18 9.81247C194.232 12.401 198.377 16.1578 202.762 20.8447C204.976 23.2114 207.041 25.686 209.006 28.0595C210.99 30.4564 212.86 32.7341 214.765 34.8242C218.597 39.0288 222.26 42.1113 226.465 43.4697C227.712 43.8726 229.473 43.9875 231.712 43.7529C233.916 43.522 236.381 42.9755 238.923 42.2363C250.73 38.8025 264.604 41.5113 272.112 52.1445C272.992 53.3909 274.017 54.5337 275.161 55.5449C281.991 61.5827 292.06 62.2335 299.595 57.1152L302.85 54.9043C304.065 54.079 305.337 53.3413 306.656 52.6963L316.86 47.709C321.431 45.4749 326.508 44.4811 331.584 44.8271C339.355 45.357 346.588 48.9871 351.656 54.9023L354.675 58.4258C361.152 65.9857 370.61 70.3369 380.565 70.3369H480V76.3369H380.565C368.858 76.3369 357.735 71.2195 350.118 62.3291L347.1 58.8066C343.079 54.1138 337.341 51.2328 331.176 50.8125C327.149 50.538 323.121 51.3272 319.495 53.0996L309.291 58.0869C308.227 58.6071 307.201 59.2025 306.221 59.8681L302.966 62.0791C293.157 68.7419 280.066 67.8886 271.188 60.04C269.696 58.7217 268.36 57.2322 267.211 55.6054C261.574 47.622 250.675 45.0676 240.599 47.998C239.088 48.4375 237.549 48.8262 236.026 49.1367C236.665 49.2078 237.307 49.2615 237.951 49.2929C248.692 49.817 258.673 54.9849 265.301 63.4531L267.052 65.6904L281.206 83.3047C286.218 88.9479 295.044 88.9389 300.043 83.2734L307.276 75.0752L316.434 64.2529C317.405 63.1049 318.506 62.0728 319.715 61.1777C326.722 55.9875 336.322 56.0773 343.23 61.3984L348.237 65.2549C349.704 66.3846 351.054 67.6581 352.269 69.0556L362.087 80.3554C365.295 84.0475 369.244 87.0223 373.679 89.0859C378.28 91.2272 383.294 92.3369 388.369 92.3369H480V98.3369H388.369C382.419 98.3369 376.541 97.0358 371.146 94.5254C365.948 92.1061 361.318 88.619 357.558 84.291L347.739 72.9912C346.786 71.8944 345.726 70.8954 344.575 70.0088L339.569 66.1523C334.786 62.4679 328.138 62.4052 323.286 65.999C322.449 66.6187 321.687 67.3331 321.015 68.1279L311.833 78.9785L311.813 79.0019L311.793 79.0254L304.542 87.2431C297.142 95.63 284.063 95.6249 276.669 87.2324L276.624 87.1806L276.581 87.1279L262.375 69.4492L262.362 69.4336L262.351 69.4189L260.576 67.1513C255.023 60.0554 246.658 55.7242 237.658 55.2851C230.32 54.9271 223.254 52.394 217.36 48.0078L215.806 46.8506C213.156 44.8786 210.74 42.6109 208.604 40.0908L193.769 22.5791C192.978 21.6464 192.076 20.8153 191.081 20.1045C185.973 16.4534 179.118 16.4203 173.975 20.0215L171.153 21.9951C171.145 22.0016 171.135 22.0097 171.124 22.0185C171.075 22.0562 171 22.1152 170.899 22.1943C170.698 22.3529 170.396 22.5939 170.006 22.9131C169.226 23.5515 168.094 24.5035 166.709 25.7383C163.936 28.21 160.162 31.8056 156.173 36.2871C154.281 38.4127 152.208 41.3322 149.956 44.6914C147.764 47.9603 145.336 51.7507 142.958 55.2197C140.553 58.7274 138.034 62.1588 135.467 64.9414C132.951 67.6688 130.12 70.0754 127.032 71.124C123.069 72.4698 118.388 72.0805 114.278 71.2285C105.349 69.3772 96.1941 70.5284 90.251 76.2334C89.4297 77.0217 88.6784 77.8803 88.0059 78.7988L80.9404 88.4492C76.5216 94.4842 69.5581 98.1345 62.0811 98.3359L62.04 98.3369H0V92.3369H61.9424C67.5555 92.1786 72.7808 89.4356 76.0986 84.9043L83.165 75.2549C84.0431 74.0557 85.0235 72.9345 86.0957 71.9052C94.0422 64.2769 105.573 63.2963 115.496 65.3535C119.281 66.1382 122.677 66.2661 125.103 65.4424C126.741 64.8858 128.737 63.3869 131.057 60.873C133.325 58.4146 135.649 55.2689 138.009 51.8271C140.395 48.3462 142.65 44.8129 144.972 41.3506C147.232 37.9786 149.502 34.7574 151.691 32.2978C155.865 27.6091 159.81 23.8504 162.716 21.2597C164.17 19.9634 165.367 18.9563 166.206 18.2695C166.626 17.9262 166.956 17.6626 167.185 17.4824C167.299 17.3923 167.388 17.3233 167.45 17.2754C167.481 17.2514 167.505 17.232 167.522 17.2187C167.531 17.2122 167.538 17.207 167.543 17.2031C167.546 17.2012 167.548 17.1995 167.55 17.1982L167.552 17.1972L167.553 17.1963C167.556 17.2002 167.629 17.2953 169.278 19.4619L167.553 17.1953L167.601 17.1592L167.649 17.125L170.533 15.1064C174.438 12.3725 179.045 11.1321 183.587 11.3759C183.291 11.1472 183.056 10.9663 182.888 10.8398C182.782 10.7606 182.703 10.7019 182.651 10.664C182.636 10.6527 182.623 10.6433 182.612 10.6357L179.876 8.81345C174.195 5.02948 166.787 5.06502 161.143 8.90329C160.205 9.54069 159.335 10.272 158.545 11.0849L143.947 26.1064C138.975 32.3396 132.19 35.7768 125.107 38.0371C118.083 40.2788 110.245 41.499 103.45 42.9677C102.473 43.179 101.557 43.4629 100.713 43.8261C95.5107 46.065 91.7859 50.0111 89.4707 53.1758C87.4628 55.9205 85.2396 59.4416 82.6709 62.3574C74.8414 71.2445 63.5687 76.3369 51.7246 76.3369H0V70.3369H51.7246C61.8456 70.3369 71.4785 65.9858 78.1689 58.3916C80.2189 56.0647 81.8053 53.5939 83.7637 50.834L84.6279 49.6328C87.2886 45.9959 91.787 41.1361 98.3408 38.3154C99.5859 37.7796 100.878 37.3855 102.183 37.1035L103.549 36.8125C110.37 35.3866 117.037 34.3147 123.283 32.3213C129.837 30.2298 135.399 27.2611 139.344 22.2578L139.439 22.1357L139.548 22.0244L154.242 6.90329C155.315 5.79954 156.497 4.80682 157.77 3.94138Z" fill="#0020F5"/>
</svg>
