<svg width="430" height="188" viewBox="0 0 430 188" fill="none" xmlns="http://www.w3.org/2000/svg">
<path d="M163.806 136.522C170.971 134.347 178.661 134.645 185.637 137.37L191.653 139.721C194.679 140.902 197.587 142.366 200.34 144.09L251.13 175.905C253.647 177.482 256.352 178.738 259.182 179.644C265.85 181.777 272.999 181.899 279.735 179.992L285.086 178.478L310.764 169.257L310.854 169.225L310.947 169.198L317.506 167.308C325.856 164.902 334.695 164.745 343.126 166.853C346.133 167.604 349.062 168.638 351.875 169.939L358.857 173.17C365.303 176.152 372.129 178.235 379.142 179.359C383.2 180.01 387.304 180.337 391.415 180.337H430V186.337H391.415C386.986 186.337 382.564 185.984 378.191 185.283C370.636 184.072 363.282 181.828 356.338 178.615L349.355 175.385C346.885 174.242 344.311 173.333 341.67 172.673C334.265 170.822 326.502 170.96 319.168 173.073L312.711 174.933L287.014 184.16L286.917 184.195L286.817 184.224L281.369 185.766C273.498 187.993 265.144 187.852 257.353 185.358C254.047 184.3 250.886 182.833 247.944 180.99L197.154 149.174C194.719 147.649 192.147 146.355 189.471 145.31L183.453 142.959C177.732 140.724 171.426 140.479 165.549 142.264C161.051 143.629 156.802 146.105 152.626 148.95C148.451 151.795 141.946 155.788 132.137 160.856C121.603 166.299 111.372 170.599 103.781 173.538C99.983 175.009 96.8387 176.141 94.6396 176.907C93.54 177.29 92.6756 177.582 92.084 177.778C91.7883 177.877 91.5605 177.951 91.4053 178.002C91.3278 178.027 91.2683 178.046 91.2275 178.06C91.2073 178.066 91.1916 178.072 91.1807 178.075C91.1784 178.076 91.1738 178.076 91.1738 178.076L82.3975 181.014C71.8615 184.539 60.824 186.337 49.7139 186.337H0V180.337H49.7139C60.1768 180.337 70.5709 178.644 80.4932 175.324L89.2988 172.378L89.3398 172.364L89.3418 172.363C89.3418 172.363 89.3462 172.362 89.3496 172.361C89.3577 172.359 89.3712 172.354 89.3887 172.349C89.4237 172.337 89.4773 172.32 89.5488 172.297C89.6921 172.25 89.9074 172.179 90.1904 172.085C90.7569 171.897 91.5946 171.614 92.666 171.241C94.8092 170.495 97.8889 169.386 101.615 167.943C109.074 165.056 119.096 160.84 129.383 155.525C139.015 150.549 145.305 146.677 149.247 143.991C153.593 141.03 158.437 138.152 163.806 136.522Z" fill="#0020F5"/>
<path d="M162.106 103.039C170.373 100.529 179.244 100.873 187.291 104.017L190.604 105.311C194.379 106.786 197.955 108.726 201.25 111.085L258.8 152.294C261.59 154.292 264.675 155.842 267.943 156.888C274.114 158.862 280.731 158.974 286.965 157.21L293.064 155.482L314.714 147.275L314.829 147.231L314.947 147.198L321.506 145.308C329.856 142.902 338.694 142.745 347.125 144.853C350.132 145.604 353.061 146.638 355.874 147.939L366.458 152.836C370.563 154.735 374.872 156.161 379.301 157.084C383.296 157.917 387.366 158.337 391.447 158.337H430V164.337H391.447C386.955 164.337 382.474 163.875 378.076 162.958C373.201 161.942 368.458 160.372 363.938 158.281L353.354 153.385C350.884 152.242 348.311 151.333 345.67 150.673C338.265 148.822 330.502 148.96 323.167 151.073L316.729 152.928L294.942 161.188L294.817 161.224L288.599 162.983C281.23 165.069 273.409 164.937 266.115 162.603C262.252 161.366 258.605 159.534 255.307 157.172L197.757 115.963C194.867 113.894 191.731 112.193 188.421 110.9L185.107 109.605C178.315 106.952 170.827 106.662 163.85 108.78C160.322 109.851 157.001 111.515 154.031 113.7L142.285 122.344L142.226 122.388L142.164 122.429L100.635 149.942C94.6316 153.919 88.1543 157.131 81.3555 159.504C72.1894 162.703 62.5501 164.337 52.8418 164.337H0V158.337H52.8418C61.877 158.337 70.8483 156.817 79.3789 153.84C85.7064 151.632 91.7334 148.642 97.3203 144.94L138.78 117.473L150.476 108.867C153.994 106.278 157.927 104.308 162.106 103.039Z" fill="#0020F5"/>
<path d="M179.171 43.3017C186.565 38.1245 196.421 38.1728 203.765 43.4218C204.944 44.2647 206.034 45.2258 207.018 46.29L221.058 61.4775L221.162 61.5908L221.255 61.7138C224.931 66.6155 230.284 69.4742 236.686 71.5537C239.884 72.5925 243.268 73.4137 246.764 74.2119C250.219 75.0007 253.83 75.7769 257.288 76.7002C258.279 76.9649 259.26 77.3056 260.212 77.7363C265.986 80.3483 270.075 84.685 272.651 88.1728C274.004 90.003 275.251 91.9198 276.438 93.7031C277.645 95.5185 278.811 97.2279 280.086 98.8144C286.537 106.842 294.689 113.039 303.41 111.974C304.213 111.875 304.904 111.727 305.476 111.537C308.085 110.667 310.713 108.683 312.808 106.718C313.825 105.763 314.66 104.868 315.236 104.214C315.524 103.888 315.745 103.624 315.891 103.447C315.963 103.359 316.017 103.292 316.051 103.25C316.067 103.229 316.079 103.214 316.086 103.206C316.088 103.203 316.091 103.199 316.091 103.199L316.129 103.15L316.17 103.103L323.911 93.9531C325.936 91.5604 328.418 89.5964 331.213 88.1767C339.658 83.8863 349.854 85.081 357.078 91.208L359.844 93.5537C361.528 94.9817 363.043 96.598 364.359 98.3701L365.288 99.6201C371.808 108.394 381.914 113.79 392.832 114.325L393.068 114.337H430V120.337H392.927L392.854 120.333L392.538 120.318C379.827 119.695 368.062 113.413 360.472 103.198L359.544 101.949C358.5 100.544 357.298 99.2622 355.963 98.1299L353.197 95.7841C347.816 91.2202 340.222 90.3304 333.931 93.5263C331.849 94.5838 330 96.0468 328.492 97.8291L320.779 106.942C320.768 106.957 320.755 106.975 320.739 106.994C320.688 107.058 320.616 107.148 320.523 107.261C320.339 107.485 320.073 107.801 319.736 108.183C319.064 108.945 318.098 109.981 316.913 111.093C314.603 113.26 311.214 115.948 307.373 117.228C306.332 117.576 305.232 117.795 304.138 117.929C292.079 119.402 282.071 110.863 275.408 102.572C273.95 100.758 272.657 98.8524 271.442 97.0263C270.206 95.1683 269.065 93.4169 267.825 91.7383C265.59 88.7128 262.24 85.2395 257.738 83.2031C257.27 82.9912 256.778 82.8061 256.263 82.6474L255.74 82.497C252.422 81.6111 248.989 80.8744 245.428 80.0615C241.908 79.2579 238.302 78.3879 234.832 77.2607C227.947 75.0241 221.293 71.681 216.56 65.4492L202.612 50.3633C201.906 49.5988 201.122 48.908 200.275 48.3027C195.001 44.5328 187.923 44.4985 182.612 48.2168L180.058 50.0039C180.052 50.0082 180.047 50.0135 180.04 50.0185C179.991 50.0562 179.916 50.115 179.815 50.1943C179.614 50.3529 179.313 50.5939 178.923 50.9131C178.143 51.5516 177.01 52.5034 175.625 53.7383C172.852 56.21 169.079 59.8058 165.09 64.2871C163.116 66.5044 161.252 68.8496 159.379 71.2275C157.525 73.5816 155.646 75.9882 153.721 78.209C152.909 79.1455 152.071 80.0644 151.206 80.9531C162.099 73.8241 176.029 73.027 187.71 78.9795C191.342 80.8301 194.638 83.277 197.46 86.2177L206.342 95.4726C211.574 100.924 218 105.088 225.114 107.634L225.702 107.844C233.915 110.783 241.264 115.727 247.08 122.228L248.854 124.212C252.007 127.736 255.865 130.559 260.177 132.499C266.697 135.433 273.979 136.224 280.977 134.76L281.983 134.549C286.064 133.695 289.971 132.156 293.539 129.999L303.652 123.884C306.121 122.391 308.735 121.15 311.452 120.18C321.898 116.449 333.381 116.892 343.509 121.417L350.027 124.33L350.146 124.383L360.121 129.925C366.594 133.521 373.754 135.705 381.13 136.337H430V142.337H380.876L380.751 142.326C372.484 141.637 364.459 139.197 357.208 135.169L347.456 129.752L341.061 126.895C332.344 123.001 322.461 122.619 313.47 125.83C311.131 126.665 308.882 127.734 306.757 129.019L296.644 135.134C292.497 137.641 287.956 139.429 283.213 140.422L282.206 140.632C273.966 142.356 265.391 141.425 257.714 137.971C252.637 135.686 248.096 132.361 244.384 128.212L242.608 126.228C237.459 120.473 230.952 116.095 223.681 113.493L223.093 113.282C215.104 110.423 207.888 105.75 202.013 99.6279L193.131 90.372C190.773 87.9154 188.02 85.8711 184.986 84.3252C174.776 79.1223 162.51 80.0923 153.244 86.8349L146.753 91.5576L130.631 104.58C125.644 108.608 120.293 112.162 114.646 115.194L98.667 123.774L87.5996 131.311C80.671 136.028 72.8778 139.329 64.6689 141.023C60.4387 141.897 56.13 142.337 51.8105 142.337H0V136.337H51.8105C55.7223 136.337 59.6241 135.938 63.4551 135.147C70.8895 133.613 77.9477 130.623 84.2227 126.351L95.4219 118.726L95.5527 118.637L95.6914 118.562L111.807 109.908C117.125 107.052 122.165 103.705 126.861 99.9121L141.699 87.9258C141.163 88.1593 140.616 88.3734 140.057 88.5634C136.365 89.8173 131.395 90.0724 126.723 89.9619C116.015 89.7086 105.697 93.8853 100.019 102.338C98.6535 104.37 97.0579 106.238 95.2646 107.904L94.3184 108.784C86.5555 115.997 76.4009 120.088 65.8057 120.271L62.0518 120.337H0V114.337H62L65.7021 114.272C74.8182 114.115 83.5553 110.595 90.2344 104.389L91.1807 103.509C92.6357 102.157 93.9305 100.641 95.0381 98.9922C102.138 88.4236 114.664 83.6753 126.864 83.9638C131.424 84.0717 135.495 83.7765 138.127 82.8828C142.071 81.5434 145.535 78.4894 149.188 74.2773C150.999 72.1881 152.778 69.9118 154.666 67.5146C156.535 65.1413 158.5 62.6657 160.607 60.2978C164.781 55.6089 168.727 51.8505 171.633 49.2597C173.087 47.9634 174.284 46.9563 175.123 46.2695C175.543 45.9262 175.873 45.6626 176.102 45.4824C176.216 45.3925 176.304 45.3233 176.366 45.2754C176.397 45.2514 176.422 45.232 176.439 45.2187C176.448 45.2123 176.455 45.2069 176.46 45.2031C176.462 45.2012 176.464 45.1995 176.466 45.1982L176.469 45.1972C176.469 45.1972 176.469 45.1959 178.068 47.2959L176.47 45.1953L176.518 45.1592L179.171 43.3017Z" fill="#0020F5"/>
<path d="M169.77 3.94138C177.433 -1.26941 187.489 -1.31712 195.202 3.82029L198.006 5.68747L198.055 5.7197L198.103 5.75486L198.104 5.75583L198.106 5.75681C198.108 5.758 198.11 5.75991 198.112 5.76169C198.118 5.76551 198.125 5.77088 198.134 5.77732C198.152 5.79046 198.178 5.80913 198.21 5.83298C198.275 5.88069 198.368 5.95017 198.487 6.04001C198.727 6.21977 199.074 6.48319 199.515 6.82615C200.395 7.51193 201.653 8.51733 203.18 9.81247C206.232 12.401 210.377 16.1579 214.762 20.8447C216.976 23.2114 219.041 25.6861 221.006 28.0595C222.99 30.4564 224.86 32.7341 226.765 34.8242C230.597 39.0288 234.26 42.1113 238.465 43.4697C239.712 43.8726 241.473 43.9875 243.712 43.7529C245.916 43.522 248.381 42.9755 250.923 42.2363C262.73 38.8025 276.604 41.5113 284.112 52.1445C284.992 53.3909 286.017 54.5337 287.161 55.5449C293.991 61.5827 304.06 62.2335 311.595 57.1152L314.85 54.9043C316.065 54.079 317.337 53.3413 318.656 52.6963L328.86 47.709C333.431 45.4749 338.508 44.4811 343.584 44.8271C351.355 45.357 358.588 48.9871 363.656 54.9023L366.675 58.4258C373.152 65.9857 382.61 70.3369 392.565 70.3369H430V76.3369H392.565C380.858 76.3369 369.735 71.2195 362.118 62.3291L359.1 58.8066C355.079 54.1138 349.341 51.2328 343.176 50.8125C339.149 50.538 335.121 51.3272 331.495 53.0996L321.291 58.0869C320.227 58.6071 319.201 59.2025 318.221 59.8681L314.966 62.0791C305.157 68.7419 292.066 67.8885 283.188 60.04C281.696 58.7217 280.36 57.2322 279.211 55.6054C273.574 47.622 262.675 45.0676 252.599 47.998C251.088 48.4375 249.549 48.8262 248.026 49.1367C248.665 49.2078 249.307 49.2615 249.951 49.2929C260.692 49.817 270.673 54.9849 277.301 63.4531L279.052 65.6904L293.206 83.3047C298.218 88.9479 307.044 88.9388 312.043 83.2734L319.276 75.0752L328.434 64.2529C329.405 63.1049 330.506 62.0728 331.715 61.1777C338.722 55.9875 348.322 56.0773 355.23 61.3984L360.237 65.2549C361.704 66.3846 363.054 67.6581 364.269 69.0556L374.087 80.3554C377.295 84.0474 381.244 87.0223 385.679 89.0859C390.28 91.2272 395.294 92.3369 400.369 92.3369H430V98.3369H400.369C394.419 98.3369 388.541 97.0357 383.146 94.5254C377.948 92.1061 373.318 88.619 369.558 84.291L359.739 72.9912C358.786 71.8944 357.726 70.8954 356.575 70.0088L351.569 66.1523C346.786 62.4679 340.138 62.4052 335.286 65.999C334.449 66.6187 333.687 67.3331 333.015 68.1279L323.833 78.9785L323.813 79.0019L323.793 79.0254L316.542 87.2431C309.142 95.63 296.063 95.6249 288.669 87.2324L288.624 87.1806L288.581 87.1279L274.375 69.4492L274.362 69.4336L274.351 69.4189L272.576 67.1513C267.023 60.0554 258.658 55.7242 249.658 55.2851C242.32 54.9271 235.254 52.394 229.36 48.0078L227.806 46.8506C225.156 44.8786 222.74 42.6109 220.604 40.0908L205.769 22.5791C204.978 21.6464 204.076 20.8153 203.081 20.1045C197.973 16.4534 191.118 16.4203 185.975 20.0215L183.153 21.9951C183.145 22.0016 183.135 22.0097 183.124 22.0185C183.075 22.0562 183 22.1152 182.899 22.1943C182.698 22.3529 182.396 22.5939 182.006 22.9131C181.226 23.5515 180.094 24.5035 178.709 25.7383C175.936 28.21 172.162 31.8056 168.173 36.2871C166.281 38.4127 164.208 41.3322 161.956 44.6914C159.764 47.9603 157.336 51.7507 154.958 55.2197C152.553 58.7274 150.034 62.1588 147.467 64.9414C144.951 67.6688 142.12 70.0754 139.032 71.124C135.069 72.4698 130.388 72.0805 126.278 71.2285C117.349 69.3772 108.194 70.5284 102.251 76.2334C101.43 77.0217 100.678 77.8803 100.006 78.7988L92.9404 88.4492C88.5216 94.4842 81.5581 98.1345 74.0811 98.3359L74.04 98.3369H0V92.3369H73.9424C79.5555 92.1786 84.7808 89.4356 88.0986 84.9043L95.165 75.2549C96.0431 74.0557 97.0235 72.9345 98.0957 71.9052C106.042 64.2769 117.573 63.2963 127.496 65.3535C131.281 66.1382 134.677 66.2661 137.103 65.4424C138.741 64.8858 140.737 63.3869 143.057 60.873C145.325 58.4146 147.649 55.2689 150.009 51.8271C152.395 48.3462 154.65 44.8129 156.972 41.3506C159.232 37.9786 161.502 34.7574 163.691 32.2978C167.865 27.6091 171.81 23.8504 174.716 21.2597C176.17 19.9634 177.367 18.9563 178.206 18.2695C178.626 17.9262 178.956 17.6626 179.185 17.4824C179.299 17.3923 179.388 17.3233 179.45 17.2754C179.481 17.2514 179.505 17.232 179.522 17.2187C179.531 17.2122 179.538 17.207 179.543 17.2031C179.545 17.2012 179.548 17.1995 179.55 17.1982L179.552 17.1972L179.553 17.1963L179.601 17.1592L182.533 15.1064C186.438 12.3725 191.045 11.1321 195.587 11.3759C195.291 11.1472 195.056 10.9663 194.888 10.8398C194.782 10.7607 194.703 10.7019 194.651 10.664C194.636 10.6527 194.623 10.6433 194.612 10.6357L191.876 8.81345C186.195 5.02948 178.787 5.06502 173.143 8.90329C172.205 9.54069 171.335 10.272 170.545 11.0849L155.947 26.1064C150.975 32.3396 144.19 35.7768 137.107 38.0371C130.083 40.2788 122.245 41.499 115.45 42.9677C114.473 43.179 113.557 43.4629 112.713 43.8261C107.511 46.065 103.786 50.0111 101.471 53.1758C99.4628 55.9205 97.2396 59.4416 94.6709 62.3574C86.8414 71.2445 75.5687 76.3369 63.7246 76.3369H0V70.3369H63.7246C73.8456 70.3369 83.4785 65.9858 90.1689 58.3916C92.2189 56.0647 93.8054 53.5939 95.7637 50.834L96.6279 49.6328C99.2886 45.9959 103.787 41.1361 110.341 38.3154C111.586 37.7796 112.878 37.3855 114.183 37.1035L115.549 36.8125C122.37 35.3866 129.037 34.3147 135.283 32.3213C141.837 30.2298 147.399 27.2611 151.344 22.2578L151.439 22.1357L166.242 6.90329C167.315 5.79954 168.497 4.80682 169.77 3.94138Z" fill="#0020F5"/>
</svg>
