<svg width="449" height="775" viewBox="0 0 449 775" fill="none" xmlns="http://www.w3.org/2000/svg">
<path d="M199.06 504.44L199.86 507.331L166.745 516.508L201.575 570.12L201.895 570.611L202.006 571.188L214.808 637.738L214.914 638.288L214.814 638.839L193.095 758.979L239.803 769H309.109L350.009 756.236L334.266 652.692L329.638 639.283L329.342 638.425L329.571 637.547L354.598 541.742L357.5 542.5L360.402 543.259L335.605 638.184L340.026 650.993L340.115 651.251L340.156 651.521L356.328 757.883L356.715 760.43L354.256 761.197L310.458 774.864L310.021 775H239.17L238.859 774.934L188.997 764.238L186.157 763.629L186.674 760.771L208.81 638.322L196.224 572.896L159.484 516.345L157.255 512.913L161.199 511.819L198.259 501.549L199.06 504.44ZM296.396 441.286L287.61 473.648L371.93 505.228L384.771 490.184L385.802 488.975L387.381 489.148L419.724 492.714L421.038 492.859L421.818 493.927L447.423 528.984L448.514 530.478L447.669 532.123L422.064 582.036L421.913 582.331L421.702 582.585L384.643 627.15L383.263 628.81L381.251 628.029L364.405 621.493L361.274 620.278L362.833 617.304L410.432 526.452L373.299 512.866L361.282 526.948L360.384 528H311.31L303.704 610.349H327.432L326.646 613.981L321.256 638.938L320.745 641.305H301.421L312.55 753.879L312.876 757.175H236.253L236.497 753.948L243.297 664H229.689L229.373 661.356L226.664 638.66L226.264 635.305H245.106L244.235 616.349H215.876L215.614 613.638L207.014 524.789L206.695 521.5H245.882L246.014 524.362L249.966 610.349H297.679L305.587 524.725L305.838 522H357.616L367.288 510.667L357.969 507.258L358.242 506.508L282.948 478.31L280.389 477.352L281.104 474.714L289.577 443.5H264.423L272.896 474.714L273.56 477.161L271.257 478.224L225.031 499.558L327.513 500L327.487 506L211.487 505.5L210.243 499.776L266.439 473.839L257.604 441.286L256.577 437.5H297.423L296.396 441.286ZM249.768 658H279V664H249.313L242.724 751.175H306.253L295.392 641.305H251.029L249.768 658ZM235.016 658H243.75L245.012 641.305H233.022L235.016 658ZM251.112 635.305H295.374L297.124 616.349H250.241L251.112 635.305ZM301.399 635.305H315.903L319.997 616.349H303.15L301.399 635.305ZM377.907 507.466L414.552 521.19L414.426 521.525L415.709 521.995L418.925 523.171L417.336 526.204L369.705 617.113L381.409 621.654L416.875 579.005L441.486 531.03L417.752 498.532L388.302 495.287L377.907 507.466ZM221.323 610.349H243.96L240.151 527.5H213.305L221.323 610.349ZM185.704 451.704H194.408V457.704H185.704V466.408H179.704V457.704H171V451.704H179.704V443H185.704V451.704ZM219.704 382.704H228.408V388.704H219.704V397.408H213.704V388.704H205V382.704H213.704V374H219.704V382.704ZM162.704 333.704H171.408V339.704H162.704V348.408H156.704V339.704H148V333.704H156.704V325H162.704V333.704ZM278.704 322.704H287.408V328.704H278.704V337.408H272.704V328.704H264V322.704H272.704V314H278.704V322.704ZM93.7041 254.704H102.408V260.704H93.7041V269.408H87.7041V260.704H79V254.704H87.7041V246H93.7041V254.704ZM197.704 242.704H206.408V248.704H197.704V257.408H191.704V248.704H183V242.704H191.704V234H197.704V242.704ZM237.704 174.704H246.408V180.704H237.704V189.408H231.704V180.704H223V174.704H231.704V166H237.704V174.704ZM139.704 119.704H148.408V125.704H139.704V134.408H133.704V125.704H125V119.704H133.704V111H139.704V119.704ZM14.7041 8.7041H23.4082V14.7041H14.7041V23.4082H8.7041V14.7041H0V8.7041H8.7041V0H14.7041V8.7041ZM260.704 8.7041H269.408V14.7041H260.704V23.4082H254.704V14.7041H246V8.7041H254.704V0H260.704V8.7041Z" fill="#0020F5"/>
</svg>
