<svg width="1696" height="273" viewBox="0 0 1696 273" fill="none" xmlns="http://www.w3.org/2000/svg">
<g clip-path="url(#clip0_10009_22731)">
<path d="M838 0H2309" stroke="white" stroke-width="6"/>
<path d="M-186 252H136" stroke="#0020F5" stroke-width="6"/>
<path d="M-186 234H98" stroke="#0020F5" stroke-width="6"/>
<path d="M158 234H335" stroke="#0020F5" stroke-width="6"/>
<path d="M625 234H737" stroke="#0020F5" stroke-width="6"/>
<path d="M706 32H793" stroke="#0020F5" stroke-width="6"/>
<path d="M887 32H974" stroke="#0020F5" stroke-width="6"/>
<path d="M1194 32H1281" stroke="#0020F5" stroke-width="6"/>
<path d="M1062 32H1120" stroke="#0020F5" stroke-width="6"/>
<path d="M1231 114H1325" stroke="#0020F5" stroke-width="6"/>
<path d="M463 26H550" stroke="#0020F5" stroke-width="6"/>
<path d="M761 71H914" stroke="#0020F5" stroke-width="6"/>
<path d="M1025 67H1178" stroke="#0020F5" stroke-width="6"/>
<path d="M967 114H1120" stroke="#0020F5" stroke-width="6"/>
<path d="M1141 53H2309" stroke="#0020F5" stroke-width="6"/>
<path d="M1372 32L2309 32.0001" stroke="#0020F5" stroke-width="6"/>
<path d="M1404 116L2310 116" stroke="#0020F5" stroke-width="6"/>
<path d="M1044 137L2317 137" stroke="#0020F5" stroke-width="6"/>
<path d="M1102 180L2310 180" stroke="#0020F5" stroke-width="6"/>
<path d="M1550 158L2310 158" stroke="#0020F5" stroke-width="6"/>
<path d="M1131 198L2310 198" stroke="#0020F5" stroke-width="6"/>
<path d="M1247 221L2310 221" stroke="#0020F5" stroke-width="6"/>
<path d="M838 4H2309" stroke="#0020F5" stroke-width="6"/>
<path d="M287 192H536" stroke="#0020F5" stroke-width="6"/>
<path d="M542 114H699" stroke="#0020F5" stroke-width="6"/>
<path d="M793 114H861" stroke="#0020F5" stroke-width="6"/>
<path d="M638 157H831" stroke="#0020F5" stroke-width="6"/>
<path d="M-186 170H144" stroke="#0020F5" stroke-width="6"/>
<path d="M-186 109H211" stroke="#0020F5" stroke-width="6"/>
<path d="M-184 87H220" stroke="#0020F5" stroke-width="6"/>
<path d="M659 91H1247" stroke="#0020F5" stroke-width="6"/>
<path d="M263 106H452" stroke="#0020F5" stroke-width="6"/>
<path d="M340 71H625" stroke="#0020F5" stroke-width="6"/>
<path d="M-186 67H84" stroke="#0020F5" stroke-width="6"/>
<path d="M159 67H263" stroke="#0020F5" stroke-width="6"/>
<path d="M-186 151H440" stroke="#0020F5" stroke-width="6"/>
<path d="M0 26H394" stroke="#0020F5" stroke-width="6"/>
<path d="M-131 46H480" stroke="#0020F5" stroke-width="6"/>
<path d="M-183 7H428" stroke="#0020F5" stroke-width="6"/>
<path d="M-177 129H414" stroke="#0020F5" stroke-width="6"/>
<path d="M-123 192H177" stroke="#0020F5" stroke-width="6"/>
<path d="M-186 211H313" stroke="#0020F5" stroke-width="6"/>
<path d="M1305 259H2309" stroke="#0020F5" stroke-width="6"/>
<path d="M756 196H988" stroke="#0020F5" stroke-width="6"/>
<path d="M1172 157H1484" stroke="#0020F5" stroke-width="6"/>
<path d="M1068 239H1380" stroke="#0020F5" stroke-width="6"/>
<path d="M1438 239H1974" stroke="#0020F5" stroke-width="6"/>
<path d="M1328 71H1687" stroke="#0020F5" stroke-width="6"/>
<path d="M1304 88H1892" stroke="#0020F5" stroke-width="6"/>
</g>
<defs>
<clipPath id="clip0_10009_22731">
<rect width="1696" height="273" fill="white"/>
</clipPath>
</defs>
</svg>
