<svg width="545" height="726" viewBox="0 0 545 726" fill="none" xmlns="http://www.w3.org/2000/svg">
<g clip-path="url(#clip0_10040_27020)">
<path d="M8.17305 -50.8822L-37.6356 -59.3653C-40.4964 -59.8951 -43.4225 -59.9732 -46.3075 -59.5969C-60.1195 -57.7952 -70.4754 -46.0646 -70.5503 -32.1357L-71.6861 179.2C-71.8275 205.494 -50.787 227.008 -24.4961 227.451L631.763 238.517C658.93 238.975 681.062 216.812 680.564 189.645L679.204 115.408C678.741 90.1331 658.753 69.549 633.502 68.3426L577.444 65.6644C574.605 65.5287 571.784 65.1411 569.013 64.5062L543.473 58.6532L524.907 55.5589L489.633 46.2763L463.023 38.2313L393.712 27.0921L333.684 14.7153L273.657 1.71957L206.821 -10.6573L184.777 -17.6471C182.562 -18.3497 180.298 -18.8904 178.004 -19.2649L120.803 -28.6038L97.9054 -34.7923L68.2009 -40.9807L42.2095 -44.6938L8.17305 -50.8822Z" fill="white" stroke="#0020F5" stroke-width="3"/>
<path d="M43.4465 -95.1976L-2.3622 -103.681C-5.22296 -104.211 -8.14907 -104.289 -11.034 -103.912C-24.8461 -102.111 -35.2019 -90.38 -35.2768 -76.4511L-36.4127 134.884C-36.554 161.179 -15.5136 182.692 10.7773 183.136L667.036 194.202C694.204 194.66 716.335 172.496 715.837 145.329L714.477 71.093C714.014 45.8176 694.027 25.2335 668.776 24.0271L612.718 21.3489C609.879 21.2133 607.057 20.8257 604.286 20.1907L583.187 15.3554C580.233 14.6785 577.35 13.7234 574.576 12.5029L569.251 10.1595C565.285 8.41439 561.101 7.21428 556.813 6.5919L528.463 2.47703C526.095 2.1334 523.757 1.61325 521.467 0.920932L498.296 -6.08411L428.986 -17.2233L372.052 -27.7443L310.167 -37.027L242.095 -54.9727L220.051 -61.9625C217.835 -62.6651 215.571 -63.2058 213.277 -63.5803L156.076 -72.9193L133.179 -79.1077L103.474 -85.2961L77.4829 -89.0092L43.4465 -95.1976Z" fill="white" stroke="#0020F5"/>
<path d="M39.7336 -84.6771L-6.07509 -93.1602C-8.93585 -93.69 -11.862 -93.7681 -14.7469 -93.3918C-28.559 -91.5902 -38.9148 -79.8595 -38.9897 -65.9306L-40.1256 145.405C-40.2669 171.699 -19.2265 193.213 7.06441 193.656L663.323 204.722C690.491 205.181 712.622 183.017 712.124 155.85L710.764 81.6135C710.301 56.3381 690.314 35.754 665.063 34.5477L609.005 31.8694C606.166 31.7338 603.344 31.3462 600.573 30.7113L579.474 25.8759C576.52 25.199 573.637 24.2439 570.863 23.0234L565.538 20.68C561.572 18.9349 557.388 17.7348 553.1 17.1124L524.75 12.9975C522.382 12.6539 520.044 12.1338 517.754 11.4414L494.583 4.4364L425.273 -6.70277L368.339 -17.2238L306.454 -26.5065L238.382 -44.4522L216.338 -51.442C214.122 -52.1446 211.858 -52.6853 209.564 -53.0598L152.363 -62.3988L129.466 -68.5872L99.7614 -74.7756L73.77 -78.4887L39.7336 -84.6771Z" fill="white" stroke="#0020F5"/>
<path d="M37.259 -75.3949L-8.5497 -83.878C-11.4105 -84.4078 -14.3366 -84.4859 -17.2215 -84.1096C-31.0336 -82.3079 -41.3894 -70.5772 -41.4643 -56.6484L-42.6002 154.687C-42.7415 180.981 -21.7011 202.495 4.5898 202.938L660.849 214.005C688.016 214.463 710.148 192.299 709.65 165.132L708.29 90.8958C707.826 65.6204 687.839 45.0363 662.588 43.8299L606.53 41.1517C603.691 41.016 600.87 40.6284 598.099 39.9935L576.999 35.1581C574.045 34.4812 571.162 33.5261 568.389 32.3056L563.063 29.9622C559.097 28.2171 554.913 27.017 550.625 26.3946L522.275 22.2798C519.908 21.9361 517.569 21.416 515.279 20.7237L492.109 13.7186L422.798 2.57945L365.864 -7.94159L303.98 -17.2242L235.907 -35.1699L213.863 -42.1598C211.648 -42.8624 209.384 -43.4031 207.09 -43.7776L149.889 -53.1165L126.991 -59.305L97.2868 -65.4934L71.2954 -69.2065L37.259 -75.3949Z" fill="white" stroke="#0020F5"/>
<path d="M30.4524 -62.3988L-15.3563 -70.8819C-18.2171 -71.4117 -21.1432 -71.4898 -24.0282 -71.1135C-37.8402 -69.3118 -48.1961 -57.5812 -48.271 -43.6523L-49.4069 167.683C-49.5482 193.978 -28.5077 215.491 -2.21684 215.934L654.042 227.001C681.21 227.459 703.341 205.295 702.843 178.128L701.483 103.892C701.02 78.6165 681.033 58.0323 655.782 56.826L599.724 54.1478C596.884 54.0121 594.063 53.6245 591.292 52.9896L570.192 48.1542C567.239 47.4773 564.356 46.5222 561.582 45.3017L556.257 42.9583C552.291 41.2132 548.107 40.0131 543.819 39.3907L515.469 35.2759C513.101 34.9322 510.763 34.4121 508.473 33.7198L485.302 26.7147L415.992 15.5755L359.058 5.05451L297.173 -4.22815L229.101 -22.1739L207.057 -29.1637C204.841 -29.8663 202.577 -30.407 200.283 -30.7815L143.082 -40.1204L120.185 -46.3089L90.4802 -52.4973L64.4888 -56.2104L30.4524 -62.3988Z" fill="white" stroke="#0020F5"/>
<path d="M26.1203 -49.4027L-19.6884 -57.8858C-22.5491 -58.4156 -25.4752 -58.4937 -28.3602 -58.1174C-42.1722 -56.3158 -52.5281 -44.5851 -52.603 -30.6562L-53.7389 180.679C-53.8802 206.974 -32.8397 228.487 -6.54887 228.931L649.71 239.997C676.878 240.455 699.009 218.291 698.511 191.124L697.151 116.888C696.688 91.6126 676.701 71.0284 651.45 69.8221L595.392 67.1439C592.552 67.0082 589.731 66.6206 586.96 65.9857L561.42 60.1326L542.855 57.0384L507.58 47.7558L480.97 39.7108L411.66 28.5716L351.632 16.1948L291.604 3.19906L224.769 -9.17776L202.725 -16.1676C200.509 -16.8702 198.245 -17.4109 195.951 -17.7854L138.75 -27.1243L115.853 -33.3128L86.1482 -39.5012L60.1567 -43.2143L26.1203 -49.4027Z" fill="white" stroke="#0020F5" stroke-width="3"/>
<path d="M8.17305 -38.8822L-37.6356 -47.3653C-40.4964 -47.8951 -43.4225 -47.9732 -46.3075 -47.5969C-60.1195 -45.7952 -70.4754 -34.0646 -70.5503 -20.1357L-71.6861 191.2C-71.8275 217.494 -50.787 239.008 -24.4961 239.451L631.763 250.517C658.93 250.975 681.062 228.812 680.564 201.645L679.204 127.408C678.741 102.133 658.753 81.549 633.502 80.3426L577.444 77.6644C574.605 77.5287 571.784 77.1411 569.013 76.5062L543.473 70.6532L524.907 67.5589L489.633 58.2763L463.023 50.2313L393.712 39.0921L333.684 26.7153L273.657 13.7196L206.821 1.34275L184.777 -5.64706C182.562 -6.34966 180.298 -6.89037 178.004 -7.26492L120.803 -16.6038L97.9054 -22.7923L68.2009 -28.9807L42.2095 -32.6938L8.17305 -38.8822Z" fill="white" stroke="#0020F5" stroke-width="3"/>
<path d="M3.84102 -21.5551L-41.9677 -30.0382C-44.8284 -30.5679 -47.7545 -30.6461 -50.6395 -30.2698C-64.4515 -28.4681 -74.8074 -16.7374 -74.8823 -2.80854L-76.0182 208.527C-76.1595 234.821 -55.119 256.335 -28.8282 256.778L627.431 267.844C654.598 268.303 676.73 246.139 676.232 218.972L674.872 144.736C674.409 119.46 654.421 98.8761 629.17 97.6697L573.112 94.9915C570.273 94.8559 567.452 94.4683 564.681 93.8333L539.141 87.9803L520.575 84.8861L485.301 75.6034L458.691 67.5585L389.38 56.4193L329.352 44.0424L269.325 31.0467L202.489 18.6699L180.445 11.6801C178.23 10.9775 175.966 10.4368 173.672 10.0622L116.471 0.723311L93.5734 -5.46514L63.8689 -11.6536L37.8774 -15.3666L3.84102 -21.5551Z" fill="white" stroke="#0020F5" stroke-width="3"/>
<path d="M-9.15507 -4.22791L-54.9638 -12.711C-57.8245 -13.2408 -60.7506 -13.3189 -63.6356 -12.9426C-77.4476 -11.1409 -87.8035 0.589746 -87.8784 14.5186L-89.0143 225.854C-89.1556 252.148 -68.1151 273.662 -41.8243 274.105L614.435 285.172C641.602 285.63 663.734 263.466 663.236 236.299L661.876 162.063C661.412 136.787 641.425 116.203 616.174 114.997L560.116 112.319C557.277 112.183 554.455 111.795 551.685 111.16L526.145 105.307L507.579 102.213L472.305 92.9306L445.695 84.8856L376.384 73.7464L316.356 61.3696L256.328 48.3739L189.493 35.997L167.449 29.0072C165.233 28.3046 162.97 27.7639 160.675 27.3894L103.474 18.0505L80.5773 11.862L50.8728 5.67359L24.8813 1.96052L-9.15507 -4.22791Z" fill="white" stroke="#0020F5" stroke-width="3"/>
<path d="M57.2479 36.0765L27.9344 29.3901C-0.761059 22.0065 -27.6049 46.4903 -22.8856 75.7422L20.5727 345.117C24.8386 371.559 49.9191 389.394 76.2958 384.742L552.072 300.843C578.524 296.179 596 270.716 590.843 244.355L581.724 197.752C578.284 180.172 565.341 165.97 548.155 160.918L542.946 159.387C538.796 158.167 534.83 156.391 531.155 154.109L513.527 143.158L503.161 137.739C497.149 134.596 490.538 132.763 483.766 132.361L457.067 130.777C453.852 130.586 450.665 130.072 447.553 129.243L407.423 118.552C404.946 117.892 402.421 117.432 399.871 117.176L361.125 113.277C358.766 113.04 356.429 112.629 354.131 112.046L288.213 95.3307C282.987 94.0056 278.022 91.8095 273.526 88.8347L258.472 78.8747C255.26 76.7494 251.803 75.0185 248.178 73.7193L229.843 67.1497C222.774 64.6167 216.644 59.991 212.268 53.8882C208.19 48.2003 202.582 43.7868 196.094 41.1608L169.746 30.4956C167.112 29.4293 164.339 28.6254 161.544 28.11C153.75 26.6727 145.602 27.471 138.257 30.4478C134.719 31.8819 131 32.8222 127.206 33.2425L88.935 37.4808C86.6809 37.7304 84.4119 37.8199 82.1451 37.7488L66.4161 37.2549C63.3293 37.158 60.2589 36.7633 57.2479 36.0765Z" fill="white" stroke="#0020F5" stroke-width="3"/>
<path d="M56.0096 55.2611L26.6961 48.5746C-1.99934 41.1911 -28.8431 65.6749 -24.1239 94.9268L19.3344 364.301C23.6003 390.743 48.6808 408.578 75.0575 403.927L550.833 320.028C577.286 315.363 594.762 289.901 589.604 263.54L580.486 216.937C577.046 199.357 564.103 185.155 546.917 180.103L541.707 178.571C537.557 177.351 533.591 175.576 529.917 173.293L512.289 162.343L501.923 156.924C495.911 153.78 489.3 151.947 482.528 151.545L455.829 149.961C452.614 149.771 449.427 149.257 446.315 148.428L406.184 137.737C403.708 137.077 401.183 136.617 398.633 136.36L359.886 132.462C357.528 132.225 355.19 131.813 352.893 131.23L286.975 114.515C281.749 113.19 276.784 110.994 272.288 108.019L257.234 98.0592C254.021 95.934 250.565 94.2031 246.939 92.9039L228.605 86.3343C221.536 83.8013 215.405 79.1756 211.03 73.0727C206.952 67.3848 201.343 62.9713 194.856 60.3454L168.508 49.6801C165.873 48.6138 163.1 47.81 160.306 47.2946C152.512 45.8573 144.364 46.6555 137.019 49.6324C133.481 51.0664 129.762 52.0068 125.968 52.427L87.6967 56.6653C85.4426 56.9149 83.1736 57.0045 80.9069 56.9333L65.1779 56.4395C62.091 56.3425 59.0206 55.9479 56.0096 55.2611Z" fill="white" stroke="#0020F5" stroke-width="3"/>
<path d="M47.1684 77.4176L9.92363 67.26C7.2065 66.5189 4.42367 66.0442 1.61454 65.8425C-22.9241 64.0805 -44.0172 83.0515 -44.8575 107.639L-54.7777 397.92C-55.6868 424.522 -34.7759 446.784 -8.16902 447.54L572.471 464.038C600.184 464.825 622.799 442.039 621.803 414.333L616.292 261.049C615.552 240.48 601.781 222.671 582.06 216.781L533.617 202.313C529.697 201.142 525.943 199.475 522.446 197.352L504.401 186.399L493.98 181.087C487.936 178.005 481.306 176.241 474.53 175.909L447.816 174.6C444.6 174.442 441.407 173.961 438.287 173.164L398.049 162.887C395.566 162.253 393.036 161.819 390.483 161.588L351.699 158.089C349.338 157.877 346.996 157.489 344.693 156.93L278.606 140.895C273.367 139.624 268.379 137.479 263.853 134.55L248.697 124.746C245.463 122.654 241.989 120.959 238.35 119.697L219.949 113.317C212.854 110.857 206.677 106.294 202.239 100.237C198.102 94.5913 192.448 90.2358 185.934 87.6768L159.477 77.2835C156.832 76.2444 154.051 75.4692 151.251 74.9826C143.443 73.6257 135.304 74.5078 127.99 77.5601C124.467 79.0306 120.758 80.0092 116.968 80.4685L85.0242 84.3396C78.6472 85.1124 72.18 84.5973 66.0058 82.825L47.1684 77.4176Z" fill="white" stroke="#0020F5" stroke-width="4"/>
<path d="M556.088 251.639L572.419 256.667C592.02 262.702 605.621 280.522 606.271 301.02L612.632 501.398C613.564 530.76 588.139 554.063 558.969 550.583L-25.9518 480.79C-50.895 477.814 -69.3247 456.109 -68.2181 431.013L-55.1465 134.568C-53.8122 104.309 -25.1296 82.8338 4.28089 90.074L69.8244 106.209L84.2669 109.074C87.9632 109.807 91.7329 110.102 95.4983 109.953L118.297 109.053L126.45 107.888C131.474 107.171 136.581 107.254 141.58 108.136L149.134 109.47C155.973 110.676 162.468 113.353 168.172 117.313L178.97 124.812C183.94 128.264 189.519 130.745 195.411 132.124L213.121 136.269C218.803 137.598 224.194 139.953 229.031 143.217L235.464 147.558C237.725 149.083 240.111 150.413 242.598 151.533L255.692 157.432L270.236 163.006L298.688 171.192L342.875 183.596L360.302 188.531C366.439 190.269 372.861 190.767 379.193 189.995L386.087 189.154L408.204 188.35L417.432 188.162C424.334 188.021 431.186 189.37 437.519 192.119L443.143 194.559C447.175 196.309 450.948 198.604 454.355 201.381L465.627 210.565C469.147 213.434 473.057 215.788 477.239 217.558L522.884 236.876L556.088 251.639Z" fill="white" stroke="#0020F5" stroke-width="4"/>
<path d="M526.654 254.553L556.088 267.639C579.27 274.776 587.535 303.339 571.747 321.753L394.382 528.622C376.662 549.289 345.32 551.098 325.339 532.608L-36.042 198.174C-55.0673 180.567 -56.6764 151.036 -39.6768 131.466L-33.3825 124.221C-21.6794 110.748 -3.46823 104.881 13.8986 108.987L69.8243 122.209L107.056 126.289L131.191 128.913C138.004 129.653 144.579 131.844 150.474 135.338L154.612 137.79C159.344 140.594 164.522 142.563 169.921 143.613L184.539 146.456C187.335 146.999 190.174 147.293 193.022 147.333L207.922 147.544C211.637 147.597 215.297 148.453 218.65 150.055C220.575 150.975 222.379 152.131 224.019 153.496L233.833 161.665C237.17 164.442 240.868 166.754 244.826 168.537L255.692 173.432L270.236 179.006L298.688 187.192L342.875 199.595L365.598 202.758C372.036 203.654 378.59 203.233 384.861 201.52L387.845 200.706C390.174 200.069 392.549 199.61 394.948 199.331L413.879 197.13C418.678 196.572 423.534 196.741 428.282 197.633L432.106 198.351C438.569 199.565 444.586 202.496 449.526 206.836C451.8 208.835 454.314 210.544 457.009 211.924L476.976 222.148L519.455 250.581C521.737 252.109 524.145 253.437 526.654 254.553Z" fill="white" stroke="#0020F5" stroke-width="4"/>
<path d="M518.443 266.853L551.646 281.616C574.829 288.753 583.094 317.315 567.306 335.73L389.94 542.598C372.221 563.265 340.878 565.075 320.898 546.584L-32.0784 219.929C-54.1681 199.486 -52.2118 163.992 -28.0091 146.101L-12.6143 134.721C-1.09236 126.203 13.6322 123.279 27.5346 126.746L65.3829 136.186L80.9463 139.272C83.9016 139.859 86.7952 140.722 89.5888 141.85L132.62 159.235L161.469 166.969L182.575 170.631C188.012 171.575 193.608 170.577 198.384 167.813L202.925 165.185C206.802 162.942 211.536 162.755 215.578 164.686C216.594 165.171 217.546 165.781 218.411 166.501L229.392 175.642C232.728 178.419 236.426 180.73 240.384 182.513L251.25 187.409L265.795 192.983L294.823 204.395L335.546 218.053C338.721 219.118 341.998 219.848 345.324 220.231L365.127 222.509C369.852 223.052 374.632 222.891 379.309 222.029L393.731 219.372L403.987 216.808C413.326 214.474 423.213 216.028 431.386 221.117C433.035 222.144 434.597 223.304 436.057 224.587L436.802 225.241C442.092 229.889 448.347 233.305 455.117 235.243L471.302 239.877C475.522 241.085 479.556 242.866 483.291 245.17L518.443 266.853Z" fill="white" stroke="#0020F5" stroke-width="4"/>
<path d="M109.092 182.775L55.5725 173.786C52.0731 173.199 48.6607 172.177 45.4143 170.744C17.206 158.299 -14.4863 178.955 -14.4863 209.787V602.055C-14.4863 628.684 7.1916 650.224 33.8207 650.054L514.307 646.98C540.566 646.812 561.816 625.574 561.999 599.315L563.438 392.34L561.389 361.737C560.104 342.555 547.499 325.99 529.353 319.639L520.93 316.69L497.192 305.231C494.492 303.927 491.675 302.879 488.778 302.101L461.022 294.644L417.888 282.183L367.019 271.028C364.511 270.478 362.052 269.728 359.664 268.785L328.705 256.554C325.862 255.431 322.919 254.582 319.914 254.018L298.836 250.066C295.461 249.433 292.163 248.44 288.999 247.103L269.885 239.026C261.813 235.616 254.829 230.061 249.69 222.964L231.935 198.446C228.585 193.819 224.436 189.828 219.684 186.66L217.851 185.438C206.828 178.089 193.257 175.623 180.353 178.624L176.486 179.523C171.657 180.646 167.103 182.728 163.094 185.645C151.458 194.111 135.968 195.065 123.381 188.091L121.802 187.216C117.848 185.026 113.55 183.524 109.092 182.775Z" fill="white" stroke="#0020F5" stroke-width="5"/>
<path d="M79.1618 219.992L40.0325 213.167C38.1536 212.839 36.3037 212.363 34.5003 211.743C10.9457 203.638 -13.5305 221.308 -13.2511 246.217L-9.01942 623.555C-8.72316 649.973 12.8657 671.185 39.2846 671.016L520.31 667.939C546.569 667.771 567.819 646.533 568.002 620.274L569.385 421.337C569.422 416.031 568.398 410.772 566.372 405.868C562.095 395.513 553.649 387.44 543.11 383.635L514.695 373.373L479.1 363.382L414.351 342.515C411.209 341.503 408.181 340.169 405.313 338.536L374.208 320.815L327.458 302.197C321.077 299.655 315.7 295.101 312.143 289.225L309.56 284.957C306.655 280.157 301.878 276.787 296.381 275.659C290.25 274.402 285.052 270.365 282.317 264.735L265.597 230.322C260.371 219.566 251.319 211.148 240.212 206.716L212.345 195.596C204.35 192.406 195.485 192.15 187.319 194.872C180.068 197.288 173.761 201.924 169.29 208.123L155.825 226.79C152.817 230.96 148.781 234.281 144.11 236.43L141.177 237.779C132.923 241.576 123.245 240.485 116.044 234.945C114.346 233.64 112.485 232.563 110.508 231.742L89.3164 222.946C86.0507 221.59 82.6451 220.6 79.1618 219.992Z" fill="white" stroke="#0020F5" stroke-width="5"/>
<path d="M97.2171 265.238L62.3879 263.78C57.7124 263.584 53.1045 262.593 48.7621 260.849C21.7037 249.981 -7.76758 269.904 -7.76758 299.063V610.723C-7.76758 637.232 13.7228 658.722 40.2324 658.722H522.948C550.012 658.722 571.725 636.359 570.927 609.306L567.496 493.065C567.015 476.752 556.897 462.281 541.741 456.228L540.972 455.921C536.109 453.979 531.712 451.03 528.071 447.267C524.214 443.282 519.513 440.212 514.314 438.283L503.216 434.166C500.205 433.049 497.09 432.237 493.918 431.742L465.672 427.337C460.154 426.476 454.829 424.66 449.936 421.969L421.739 406.46C415.204 402.866 407.922 400.844 400.469 400.554L392.453 400.243C379.813 399.752 367.877 394.291 359.241 385.048L330.463 354.244L309.738 326.524C306.25 321.859 303.952 316.399 303.048 310.643C301.237 299.11 293.896 289.166 283.398 284.059C277.909 281.389 273.197 277.356 269.712 272.345L259.563 257.757C255.509 251.929 249.578 247.67 242.76 245.691C235.957 243.715 230.035 239.469 225.982 233.659L218.638 223.133C214.307 216.925 207.691 212.686 200.24 211.346C190.899 209.666 181.333 212.727 174.703 219.519L155.821 238.861C152.41 242.356 148.485 245.31 144.182 247.62L121.934 259.568C114.352 263.639 105.815 265.598 97.2171 265.238Z" fill="white" stroke="#0020F5" stroke-width="5"/>
<path d="M98.4568 313.548L76.3144 312.385C68.1352 311.955 60.202 309.44 53.2696 305.078L32.0475 291.725C30.9205 291.016 29.7376 290.4 28.5105 289.883C12.3966 283.098 -5.42925 294.908 -5.46447 312.392L-6.16288 659.091C-6.21636 685.638 15.2896 707.187 41.837 707.187H524.456C551.52 707.187 573.233 684.824 572.435 657.771L569.133 545.898C568.573 526.909 556.866 510.037 539.274 502.865L536.445 501.712C532.042 499.917 528 497.342 524.514 494.11C521.098 490.943 517.149 488.407 512.85 486.617L496.324 479.739C493.968 478.758 491.539 477.967 489.057 477.373L458.155 469.973L444.707 464.95C437.341 462.198 430.763 457.678 425.552 451.788L412.852 437.432C407.409 431.279 400.478 426.626 392.722 423.918L346.202 407.677C336.938 404.443 328.887 398.447 323.135 390.497L312.543 375.858C309.08 371.071 306.53 365.686 305.022 359.974L300.695 343.587C298.801 336.414 295.271 329.777 290.38 324.199L273.526 304.972C269.824 300.749 265.41 297.208 260.484 294.511L242.954 284.912C239.451 282.994 236.201 280.646 233.279 277.923L220.363 265.884C214.939 260.828 207.875 257.896 200.465 257.624C191.77 257.306 183.345 260.675 177.268 266.901L157.329 287.326C153.918 290.821 149.993 293.774 145.69 296.085L123.684 307.902C115.95 312.056 107.224 314.009 98.4568 313.548Z" fill="white" stroke="#0020F5" stroke-width="5"/>
<path d="M74.3464 343.905L54.5408 338.551C52.3957 337.971 50.2977 337.229 48.2647 336.332C19.1924 323.505 -13.4707 344.795 -13.4707 376.571V766.833C-13.4707 793.463 8.20722 815.002 34.8363 814.832L522.336 811.714C545.662 811.564 565.504 794.667 569.366 771.662L598.256 599.59C601.98 577.404 589.796 555.607 568.946 547.157L528.07 530.591L504.38 518.746C501.378 517.245 498.225 516.063 494.976 515.219L462.563 506.804C459.5 506.009 456.523 504.913 453.675 503.532L403.962 479.417L372.653 459.526C370.694 458.282 368.648 457.181 366.53 456.233L320.884 435.794C317.45 434.257 313.848 433.129 310.151 432.432L305.293 431.518C289.629 428.568 276.451 418.035 270.122 403.406L266.421 394.851L251.914 370.142C250.073 367.007 247.883 364.092 245.384 361.452L229.744 344.925C222.706 337.488 213.473 332.496 203.395 330.68L200.581 330.172C197.259 329.574 193.884 329.327 190.51 329.437L178.779 329.817C172.789 330.011 166.93 331.612 161.674 334.49C157.818 336.6 153.627 338.03 149.285 338.715L123.884 342.724L90.7532 345.411C85.2383 345.858 79.6876 345.349 74.3464 343.905Z" fill="white" stroke="#0020F5" stroke-width="6"/>
<path d="M78.4107 388.551L50.6547 376.993C23.6259 364.852 -6.97937 384.432 -7.28645 414.06L-10.1144 686.903C-10.3919 713.686 11.3027 735.514 38.0861 735.4L521.198 733.357C548.059 733.243 569.598 711.111 568.983 684.258L567.895 636.783C567.485 618.874 557.136 602.684 541.055 594.792L536.181 592.4C532.298 590.494 528.69 588.072 525.455 585.2L509.938 571.42L500.641 564.322C495.248 560.205 489.044 557.278 482.438 555.734L451.678 548.546L419.355 539.4C413.721 537.806 408.853 534.229 405.649 529.329C403.458 525.978 400.473 523.221 396.958 521.304L396.325 520.959C393.181 519.244 389.729 518.169 386.167 517.794L368.93 515.983C363.924 515.456 359.033 514.146 354.434 512.1L295.991 486.095C291.065 483.903 286.544 480.897 282.617 477.204L269.469 464.836C266.664 462.197 263.551 459.905 260.198 458.01L243.242 448.428C236.704 444.734 231.447 439.136 228.169 432.38C225.114 426.083 220.335 420.783 214.386 417.095L190.227 402.118C187.812 400.621 185.215 399.359 182.548 398.377C175.111 395.64 166.945 395.045 159.202 396.734C155.472 397.548 151.648 397.844 147.837 397.615L109.401 395.306C107.138 395.17 104.886 394.873 102.664 394.419L87.2466 391.266C84.2208 390.647 81.2618 389.738 78.4107 388.551Z" fill="white" stroke="#0020F5" stroke-width="6"/>
<path d="M71.5318 421.018L40.7824 411.421L-36.9659 374.839C-43.4638 371.782 -50.5648 370.221 -57.7459 370.273L-86.4946 370.479C-112.989 370.669 -134.319 392.29 -134.149 418.785L-132.303 706.801C-132.132 733.349 -110.443 754.717 -83.8957 754.492L518.959 749.37C549.394 749.111 571.907 720.954 565.463 691.208L561.628 673.507C558.594 659.503 549.463 647.588 536.73 641.016L502.067 623.126L488.338 615.172C485.731 613.662 482.988 612.4 480.144 611.404L436.343 596.061L409.566 582.829L391.293 571.65C386.586 568.77 383.04 564.327 381.277 559.098L379.6 554.127C378.168 549.882 374.735 546.617 370.424 545.4C369.341 545.094 368.223 544.924 367.097 544.894L352.815 544.512C348.476 544.396 344.172 543.692 340.022 542.419L328.628 538.925L314.023 533.512L287.246 520.882L245.864 501.034L226.707 488.412C221.279 484.836 216.633 480.194 213.053 474.768L211.349 472.186C210.019 470.171 208.539 468.258 206.921 466.465L194.152 452.316C190.915 448.73 187.155 445.652 183 443.188L179.653 441.203C173.997 437.85 167.542 436.08 160.967 436.08C157.939 436.08 154.922 435.704 151.987 434.962L130.24 429.464L79.5608 422.786C76.8388 422.427 74.1526 421.836 71.5318 421.018Z" fill="white" stroke="#0020F5" stroke-width="6"/>
<path d="M8.39648 612.261L98.3687 665.505M182.773 715.455L130.242 684.367" stroke="#0020F5" stroke-width="6"/>
<path d="M240.369 712.823L150.397 659.579M5.48974 574.466L138.402 652.577" stroke="#0020F5" stroke-width="6"/>
<path d="M-6.7793 486.745L26.6836 494.181L68.5565 504.288C76.4544 506.195 83.7391 510.075 89.7282 515.565L98.2615 523.387C101.345 526.213 104.785 528.625 108.493 530.56L136.346 545.092C142.451 548.276 149.289 549.789 156.166 549.477L174.253 548.655C181.491 548.326 188.026 552.961 190.108 559.901C191.403 564.217 194.479 567.776 198.562 569.681L209.97 575.005C216.462 578.035 221.659 583.284 224.623 589.806C227.653 596.472 233.012 601.802 239.693 604.797L283.239 624.318L315.363 635.491C322.295 637.903 328.351 642.327 332.754 648.199C335.658 652.071 339.296 655.333 343.459 657.801L384.153 681.916C386.28 683.176 388.501 684.27 390.797 685.188L438.708 704.353C441.643 705.527 444.455 706.988 447.102 708.715L485.881 734.005" stroke="#0020F5" stroke-width="6"/>
</g>
<defs>
<clipPath id="clip0_10040_27020">
<rect width="545" height="726" fill="white"/>
</clipPath>
</defs>
</svg>
