<svg width="72" height="30" viewBox="0 0 72 30" fill="none" xmlns="http://www.w3.org/2000/svg">
<path fill-rule="evenodd" clip-rule="evenodd" d="M59.2171 7.44994C59.6318 7.64047 60.1165 7.73574 60.6713 7.73574C61.2261 7.73574 61.708 7.64047 62.1171 7.44994C62.5318 7.25381 62.8736 6.99883 63.1426 6.68501C63.4116 6.36559 63.6133 6.02096 63.7478 5.6511C63.8823 5.28125 63.9495 4.92541 63.9495 4.58357V4.39864C63.9495 4.01758 63.8795 3.64212 63.7394 3.27227C63.5993 2.89681 63.392 2.55778 63.1174 2.25517C62.8428 1.95256 62.5009 1.7116 62.0919 1.53227C61.6828 1.34735 61.2093 1.25488 60.6713 1.25488C60.1333 1.25488 59.6598 1.34735 59.2507 1.53227C58.8416 1.7116 58.4998 1.95256 58.2252 2.25517C57.9506 2.55778 57.7433 2.89681 57.6032 3.27227C57.4687 3.64212 57.4014 4.01758 57.4014 4.39864V4.58357C57.4014 4.92541 57.4659 5.28125 57.5948 5.6511C57.7293 6.02096 57.931 6.36559 58.2 6.68501C58.469 6.99883 58.808 7.25381 59.2171 7.44994ZM61.453 6.29835C61.2233 6.39922 60.9627 6.44965 60.6713 6.44965C60.3799 6.44965 60.1193 6.39922 59.8896 6.29835C59.6598 6.19748 59.4609 6.05738 59.2927 5.87806C59.1302 5.69874 59.0069 5.49139 58.9229 5.25603C58.8388 5.02067 58.7968 4.7685 58.7968 4.49951C58.7968 4.21372 58.8388 3.95314 58.9229 3.71778C59.0069 3.47681 59.1302 3.26947 59.2927 3.09575C59.4609 2.91642 59.6598 2.77913 59.8896 2.68386C60.1193 2.5886 60.3799 2.54097 60.6713 2.54097C60.9627 2.54097 61.2233 2.5886 61.453 2.68386C61.6828 2.77913 61.8789 2.91642 62.0414 3.09575C62.2095 3.26947 62.3356 3.47681 62.4197 3.71778C62.5093 3.95314 62.5542 4.21372 62.5542 4.49951C62.5542 4.7685 62.5121 5.02067 62.4281 5.25603C62.344 5.49139 62.218 5.69874 62.0498 5.87806C61.8873 6.05738 61.6884 6.19748 61.453 6.29835Z" fill="black"/>
<path d="M68.785 7.57602L66.4735 2.55777H66.3558V7.57602H65.0781V1.4398H67.3393L69.6508 6.45805H69.7685V1.4398H71.063V7.57602H68.785Z" fill="black"/>
<path d="M54.1737 7.73574C53.6189 7.73574 53.151 7.64888 52.77 7.47516C52.3889 7.29583 52.1003 7.05487 51.9042 6.75226C51.708 6.44405 51.61 6.09101 51.61 5.69313H52.9465C52.9465 5.85004 52.9885 5.99574 53.0726 6.13023C53.1622 6.26473 53.2967 6.374 53.476 6.45806C53.6554 6.53651 53.8879 6.57574 54.1737 6.57574C54.4315 6.57574 54.6472 6.54212 54.821 6.47487C54.9947 6.40762 55.1264 6.31516 55.216 6.19748C55.3057 6.0742 55.3505 5.9341 55.3505 5.77719C55.3505 5.58106 55.2665 5.42695 55.0984 5.31487C54.9302 5.19719 54.6585 5.12154 54.283 5.08792L53.8207 5.04589C53.2099 4.99545 52.7223 4.80492 52.3581 4.4743C51.9938 4.14367 51.8117 3.70657 51.8117 3.16299C51.8117 2.77072 51.9042 2.43169 52.0891 2.1459C52.2796 1.8601 52.543 1.64155 52.8792 1.49024C53.2155 1.33334 53.6133 1.25488 54.0729 1.25488C54.5548 1.25488 54.9667 1.33894 55.3085 1.50706C55.6559 1.66957 55.9221 1.90213 56.1071 2.20474C56.292 2.50174 56.3844 2.85198 56.3844 3.25546H55.0395C55.0395 3.10415 55.0031 2.96686 54.9302 2.84357C54.8574 2.71469 54.7481 2.61101 54.6024 2.53256C54.4623 2.45411 54.2858 2.41488 54.0729 2.41488C53.8711 2.41488 53.7002 2.4485 53.5601 2.51575C53.4256 2.583 53.3247 2.67546 53.2575 2.79314C53.1903 2.90522 53.1566 3.0285 53.1566 3.16299C53.1566 3.33671 53.2183 3.48802 53.3416 3.61691C53.4648 3.74579 53.6666 3.82145 53.9468 3.84386L54.4175 3.88589C54.8658 3.92512 55.2609 4.02319 55.6027 4.18009C55.9445 4.3314 56.2107 4.54154 56.4013 4.81053C56.5974 5.07391 56.6955 5.39613 56.6955 5.77719C56.6955 6.16946 56.5918 6.5141 56.3844 6.8111C56.1827 7.1025 55.8941 7.32946 55.5187 7.49197C55.1432 7.65448 54.6949 7.73574 54.1737 7.73574Z" fill="black"/>
<path d="M47.0793 7.47516C47.4604 7.64888 47.9283 7.73574 48.4831 7.73574C49.0042 7.73574 49.4525 7.65448 49.828 7.49197C50.2034 7.32946 50.492 7.1025 50.6938 6.8111C50.9011 6.5141 51.0048 6.16946 51.0048 5.77719C51.0048 5.39613 50.9067 5.07391 50.7106 4.81053C50.5201 4.54154 50.2539 4.3314 49.912 4.18009C49.5702 4.02319 49.1751 3.92512 48.7268 3.88589L48.2561 3.84386C47.9759 3.82145 47.7742 3.74579 47.6509 3.61691C47.5276 3.48802 47.466 3.33671 47.466 3.16299C47.466 3.0285 47.4996 2.90522 47.5668 2.79314C47.6341 2.67546 47.7349 2.583 47.8694 2.51575C48.0095 2.4485 48.1805 2.41488 48.3822 2.41488C48.5951 2.41488 48.7717 2.45411 48.9118 2.53256C49.0575 2.61101 49.1667 2.71469 49.2396 2.84357C49.3124 2.96686 49.3489 3.10415 49.3489 3.25546H50.6938C50.6938 2.85198 50.6013 2.50174 50.4164 2.20474C50.2315 1.90213 49.9653 1.66957 49.6178 1.50706C49.276 1.33894 48.8641 1.25488 48.3822 1.25488C47.9227 1.25488 47.5248 1.33334 47.1886 1.49024C46.8523 1.64155 46.589 1.8601 46.3984 2.1459C46.2135 2.43169 46.121 2.77072 46.121 3.16299C46.121 3.70657 46.3032 4.14367 46.6674 4.4743C47.0317 4.80492 47.5192 4.99545 48.13 5.04589L48.5923 5.08792C48.9678 5.12154 49.2396 5.19719 49.4077 5.31487C49.5758 5.42695 49.6599 5.58106 49.6599 5.77719C49.6599 5.9341 49.615 6.0742 49.5254 6.19748C49.4357 6.31516 49.304 6.40762 49.1303 6.47487C48.9566 6.54212 48.7408 6.57574 48.4831 6.57574C48.1973 6.57574 47.9647 6.53651 47.7854 6.45806C47.6061 6.374 47.4716 6.26473 47.3819 6.13023C47.2979 5.99574 47.2558 5.85004 47.2558 5.69313H45.9193C45.9193 6.09101 46.0174 6.44405 46.2135 6.75226C46.4096 7.05487 46.6982 7.29583 47.0793 7.47516Z" fill="black"/>
<path fill-rule="evenodd" clip-rule="evenodd" d="M39.1588 1.62473C38.7833 1.46782 38.3406 1.38937 37.8306 1.38937H35.4182V7.57602H36.7967V5.60907H37.8014L39.1419 7.57602H40.739L39.1733 5.38115C39.5376 5.23002 39.8185 5.00899 40.0161 4.71806C40.2235 4.41545 40.3272 4.03719 40.3272 3.58328V3.44878C40.3272 2.98927 40.2263 2.60821 40.0245 2.3056C39.8228 2.00299 39.5342 1.77604 39.1588 1.62473ZM38.4611 2.68386C38.3154 2.5998 38.1416 2.55777 37.9399 2.55777H36.7967V4.52472H37.9399C38.1416 4.52472 38.3154 4.4855 38.4611 4.40704C38.6124 4.32299 38.7273 4.20811 38.8057 4.06241C38.8898 3.9111 38.9318 3.73738 38.9318 3.54125C38.9318 3.34511 38.8898 3.1742 38.8057 3.0285C38.7273 2.87719 38.6124 2.76231 38.4611 2.68386Z" fill="black"/>
<path fill-rule="evenodd" clip-rule="evenodd" d="M28.1789 7.57602L30.2047 1.4398H32.4322L34.5337 7.57602H33.1047L32.6066 6.05457H30.0432L29.5575 7.57602H28.1789ZM31.4645 2.56617L32.2323 4.91139H30.4082L31.157 2.56617H31.4645Z" fill="black"/>
<path d="M23.4045 7.44994C23.8024 7.64047 24.2787 7.73574 24.8335 7.73574C25.4219 7.73574 25.929 7.62646 26.3549 7.40791C26.7864 7.18376 27.1255 6.88675 27.372 6.5169C27.6242 6.14144 27.7755 5.72956 27.8259 5.28125H26.4474C26.3857 5.6455 26.2064 5.9313 25.9094 6.13864C25.618 6.34598 25.2594 6.44965 24.8335 6.44965C24.5533 6.44965 24.3039 6.40482 24.0854 6.31516C23.8668 6.21989 23.6819 6.0854 23.5306 5.91168C23.3849 5.73236 23.2728 5.52502 23.1944 5.28966C23.1215 5.04869 23.0851 4.78531 23.0851 4.49951C23.0851 4.20811 23.1215 3.94473 23.1944 3.70937C23.2728 3.4684 23.3821 3.26106 23.5222 3.08734C23.6679 2.91362 23.8472 2.77913 24.0601 2.68386C24.2731 2.5886 24.5169 2.54097 24.7914 2.54097C25.066 2.54097 25.3126 2.5886 25.5312 2.68386C25.7553 2.77913 25.9374 2.91362 26.0775 3.08734C26.2176 3.26106 26.3073 3.47121 26.3465 3.71778H27.7335C27.6886 3.22464 27.5373 2.79594 27.2796 2.43169C27.0274 2.06184 26.6884 1.77324 26.2625 1.5659C25.8366 1.35855 25.3462 1.25488 24.7914 1.25488C24.2591 1.25488 23.7968 1.34735 23.4045 1.53227C23.0178 1.7116 22.6956 1.95256 22.4378 2.25517C22.1857 2.55778 21.9979 2.89681 21.8746 3.27227C21.7514 3.64212 21.6897 4.01758 21.6897 4.39864V4.58357C21.6897 4.93101 21.7486 5.28966 21.8662 5.65951C21.9895 6.02376 22.1773 6.36559 22.4294 6.68501C22.6816 6.99883 23.0066 7.25381 23.4045 7.44994Z" fill="black"/>
<path d="M16.4282 7.57602L14.1166 2.55777H13.9989V7.57602H12.7213V1.4398H14.9824L17.294 6.45805H17.4117V1.4398H18.7062V7.57602H16.4282Z" fill="black"/>
<path d="M41.6424 7.57602V1.4398H43.021V6.36558H45.425V7.57602H41.6424Z" fill="black"/>
<path d="M9.86306 1.4398V7.57602H11.2416V1.4398H9.86306Z" fill="black"/>
<path d="M5.07497 7.57602V1.4398H6.45352V6.36558H8.85757V7.57602H5.07497Z" fill="black"/>
<path d="M0 1.4398V7.57602H3.85825V6.43283H1.34492V5.02907H3.66492V3.88588H1.34492V2.58299H3.79941V1.4398H0Z" fill="black"/>
<path fill-rule="evenodd" clip-rule="evenodd" d="M69.3073 12.0704C68.8926 11.9079 68.4078 11.8266 67.853 11.8266H65.575V18.0472H67.853C68.4078 18.0472 68.8926 17.9603 69.3073 17.7866C69.722 17.6128 70.0694 17.3831 70.3496 17.0973C70.6298 16.8059 70.8372 16.4808 70.9717 16.1222C71.1118 15.7579 71.1818 15.3908 71.1818 15.021V14.836C71.1818 14.4381 71.1118 14.0599 70.9717 13.7012C70.8372 13.3369 70.6298 13.0147 70.3496 12.7345C70.0694 12.4543 69.722 12.2329 69.3073 12.0704ZM68.702 13.2389C68.4723 13.1548 68.2145 13.1128 67.9287 13.1128H66.9535V16.761H67.9287C68.2145 16.761 68.4723 16.719 68.702 16.6349C68.9318 16.5453 69.1279 16.422 69.2904 16.2651C69.453 16.1025 69.5763 15.9092 69.6603 15.685C69.7444 15.4553 69.7864 15.2031 69.7864 14.9285C69.7864 14.6427 69.7444 14.3877 69.6603 14.1635C69.5763 13.9394 69.453 13.7488 69.2904 13.5919C69.1279 13.435 68.9318 13.3173 68.702 13.2389Z" fill="black"/>
<path fill-rule="evenodd" clip-rule="evenodd" d="M60.3613 11.8771L58.3354 18.0135H59.714L60.1998 16.492H62.7633L63.2614 18.0135H64.6904L62.5889 11.8771H60.3613ZM62.389 15.3488L61.6211 13.0035H61.3136L60.5648 15.3488H62.389Z" fill="black"/>
<path d="M6.04043 18.0135L8.09612 14.802L6.21696 11.8771H7.73006L8.92372 13.7937H9.11706L10.2939 11.8771H11.765L9.85474 14.8541L11.9583 18.0135H10.4368L9.04141 15.8448H8.83966L7.5115 18.0135H6.04043Z" fill="black"/>
<path d="M1.21888 17.8538C1.62238 18.0668 2.11273 18.1733 2.68995 18.1733C3.27277 18.1733 3.76313 18.0668 4.16102 17.8538C4.5589 17.6353 4.86152 17.327 5.06887 16.9291C5.27622 16.5313 5.3799 16.0605 5.3799 15.5169V11.8771H4.0013V15.5674C4.0013 15.842 3.95086 16.0773 3.84999 16.2735C3.74912 16.4696 3.60061 16.6209 3.40447 16.7274C3.21393 16.8339 2.97576 16.8871 2.68995 16.8871C2.40975 16.8871 2.17157 16.8339 1.97543 16.7274C1.78489 16.6209 1.63639 16.4696 1.52991 16.2735C1.42904 16.0717 1.3786 15.8364 1.3786 15.5674V11.8771H0V15.5169C0 16.0605 0.103675 16.5313 0.311025 16.9291C0.518376 17.327 0.820995 17.6353 1.21888 17.8538Z" fill="black"/>
<path d="M53.8402 18.0135V11.8771H57.6398V13.0203H55.1852V14.3233H57.5053V15.4665H55.1852V16.8703H57.6987V18.0135H53.8402Z" fill="black"/>
<path d="M49.0688 11.8771V18.0135H52.8516V16.8031H50.4474V11.8771H49.0688Z" fill="black"/>
<path fill-rule="evenodd" clip-rule="evenodd" d="M11.239 28.7453C10.6842 28.7453 10.1994 28.65 9.78469 28.4595C9.37559 28.2634 9.03654 28.0084 8.76755 27.6945C8.49855 27.3751 8.2968 27.0305 8.1623 26.6606C8.03341 26.2907 7.96896 25.9349 7.96896 25.593V25.4081C7.96896 25.027 8.03621 24.6515 8.17071 24.2816C8.31081 23.9062 8.51816 23.5671 8.79276 23.2645C9.06737 22.9619 9.40922 22.7209 9.81832 22.5416C10.2274 22.3566 10.701 22.2642 11.239 22.2642C11.777 22.2642 12.2505 22.3566 12.6596 22.5416C13.0687 22.7209 13.4106 22.9619 13.6852 23.2645C13.9598 23.5671 14.1671 23.9062 14.3072 24.2816C14.4473 24.6515 14.5174 25.027 14.5174 25.4081V25.593C14.5174 25.9349 14.4501 26.2907 14.3156 26.6606C14.1811 27.0305 13.9794 27.3751 13.7104 27.6945C13.4414 28.0084 13.0995 28.2634 12.6848 28.4595C12.2757 28.65 11.7938 28.7453 11.239 28.7453ZM11.239 27.4592C11.5304 27.4592 11.791 27.4087 12.0207 27.3079C12.2561 27.207 12.455 27.0669 12.6176 26.8876C12.7857 26.7082 12.9118 26.5009 12.9958 26.2655C13.0799 26.0301 13.1219 25.7779 13.1219 25.5089C13.1219 25.2231 13.0771 24.9625 12.9874 24.7272C12.9034 24.4862 12.7773 24.2788 12.6092 24.1051C12.4466 23.9258 12.2505 23.7885 12.0207 23.6932C11.791 23.5979 11.5304 23.5503 11.239 23.5503C10.9475 23.5503 10.687 23.5979 10.4572 23.6932C10.2274 23.7885 10.0285 23.9258 9.86035 24.1051C9.69783 24.2788 9.57454 24.4862 9.49048 24.7272C9.40641 24.9625 9.36438 25.2231 9.36438 25.5089C9.36438 25.7779 9.40641 26.0301 9.49048 26.2655C9.57454 26.5009 9.69783 26.7082 9.86035 26.8876C10.0285 27.0669 10.2274 27.207 10.4572 27.3079C10.687 27.4087 10.9475 27.4592 11.239 27.4592Z" fill="black"/>
<path fill-rule="evenodd" clip-rule="evenodd" d="M45.1158 28.7453C44.561 28.7453 44.0762 28.65 43.6615 28.4595C43.2524 28.2634 42.9134 28.0084 42.6444 27.6945C42.3754 27.3751 42.1736 27.0305 42.0391 26.6606C41.9102 26.2907 41.8458 25.9349 41.8458 25.593V25.4081C41.8458 25.027 41.913 24.6515 42.0475 24.2816C42.1876 23.9062 42.395 23.5671 42.6696 23.2645C42.9442 22.9619 43.286 22.7209 43.6951 22.5416C44.1042 22.3566 44.5778 22.2642 45.1158 22.2642C45.6538 22.2642 46.1273 22.3566 46.5364 22.5416C46.9455 22.7209 47.2874 22.9619 47.562 23.2645C47.8366 23.5671 48.0439 23.9062 48.184 24.2816C48.3241 24.6515 48.3942 25.027 48.3942 25.4081V25.593C48.3942 25.9349 48.3269 26.2907 48.1924 26.6606C48.0579 27.0305 47.8562 27.3751 47.5872 27.6945C47.3182 28.0084 46.9764 28.2634 46.5617 28.4595C46.1526 28.65 45.6706 28.7453 45.1158 28.7453ZM45.1158 27.4592C45.4072 27.4592 45.6678 27.4087 45.8976 27.3079C46.1329 27.207 46.3319 27.0669 46.4944 26.8876C46.6625 26.7082 46.7886 26.5009 46.8727 26.2655C46.9567 26.0301 46.9988 25.7779 46.9988 25.5089C46.9988 25.2231 46.9539 24.9625 46.8643 24.7272C46.7802 24.4862 46.6541 24.2788 46.486 24.1051C46.3235 23.9258 46.1273 23.7885 45.8976 23.6932C45.6678 23.5979 45.4072 23.5503 45.1158 23.5503C44.8244 23.5503 44.5638 23.5979 44.334 23.6932C44.1042 23.7885 43.9053 23.9258 43.7372 24.1051C43.5747 24.2788 43.4514 24.4862 43.3673 24.7272C43.2832 24.9625 43.2412 25.2231 43.2412 25.5089C43.2412 25.7779 43.2832 26.0301 43.3673 26.2655C43.4514 26.5009 43.5747 26.7082 43.7372 26.8876C43.9053 27.0669 44.1042 27.207 44.334 27.3079C44.5638 27.4087 44.8244 27.4592 45.1158 27.4592Z" fill="black"/>
<path fill-rule="evenodd" clip-rule="evenodd" d="M67.9293 28.7453C67.3745 28.7453 66.8898 28.65 66.4751 28.4595C66.066 28.2634 65.7269 28.0084 65.4579 27.6945C65.1889 27.3751 64.9872 27.0305 64.8527 26.6606C64.7238 26.2907 64.6593 25.9349 64.6593 25.593V25.4081C64.6593 25.027 64.7266 24.6515 64.8611 24.2816C65.0012 23.9062 65.2085 23.5671 65.4831 23.2645C65.7577 22.9619 66.0996 22.7209 66.5087 22.5416C66.9178 22.3566 67.3913 22.2642 67.9293 22.2642C68.4673 22.2642 68.9409 22.3566 69.35 22.5416C69.7591 22.7209 70.1009 22.9619 70.3755 23.2645C70.6501 23.5671 70.8575 23.9062 70.9976 24.2816C71.1377 24.6515 71.2077 25.027 71.2077 25.4081V25.593C71.2077 25.9349 71.1405 26.2907 71.006 26.6606C70.8715 27.0305 70.6697 27.3751 70.4007 27.6945C70.1317 28.0084 69.7899 28.2634 69.3752 28.4595C68.9661 28.65 68.4841 28.7453 67.9293 28.7453ZM67.9293 27.4592C68.2207 27.4592 68.4813 27.4087 68.7111 27.3079C68.9465 27.207 69.1454 27.0669 69.3079 26.8876C69.4761 26.7082 69.6022 26.5009 69.6862 26.2655C69.7703 26.0301 69.8123 25.7779 69.8123 25.5089C69.8123 25.2231 69.7675 24.9625 69.6778 24.7272C69.5937 24.4862 69.4676 24.2788 69.2995 24.1051C69.137 23.9258 68.9409 23.7885 68.7111 23.6932C68.4813 23.5979 68.2207 23.5503 67.9293 23.5503C67.6379 23.5503 67.3773 23.5979 67.1475 23.6932C66.9178 23.7885 66.7188 23.9258 66.5507 24.1051C66.3882 24.2788 66.2649 24.4862 66.1808 24.7272C66.0968 24.9625 66.0547 25.2231 66.0547 25.5089C66.0547 25.7779 66.0968 26.0301 66.1808 26.2655C66.2649 26.5009 66.3882 26.7082 66.5507 26.8876C66.7188 27.0669 66.9178 27.207 67.1475 27.3079C67.3773 27.4087 67.6379 27.4592 67.9293 27.4592Z" fill="black"/>
<path fill-rule="evenodd" clip-rule="evenodd" d="M21.9926 22.634C21.6171 22.4771 21.1744 22.3987 20.6644 22.3987H18.2519V28.5856H19.6305V26.6185H20.6352L21.9758 28.5856H23.573L22.0071 26.3906C22.3715 26.2395 22.6524 26.0184 22.85 25.7275C23.0574 25.4249 23.1611 25.0466 23.1611 24.5927V24.4582C23.1611 23.9986 23.0602 23.6175 22.8585 23.3149C22.6567 23.0123 22.3681 22.7853 21.9926 22.634ZM21.2949 23.6932C21.1492 23.6091 20.9755 23.5671 20.7737 23.5671H19.6305V25.5342H20.7737C20.9755 25.5342 21.1492 25.4949 21.2949 25.4165C21.4462 25.3324 21.5611 25.2175 21.6396 25.0718C21.7236 24.9205 21.7657 24.7468 21.7657 24.5506C21.7657 24.3545 21.7236 24.1836 21.6396 24.0379C21.5611 23.8865 21.4462 23.7717 21.2949 23.6932Z" fill="black"/>
<path fill-rule="evenodd" clip-rule="evenodd" d="M3.58102 26.5681C3.21115 26.7418 2.76563 26.8287 2.24444 26.8287H1.37861V28.5856H0V22.3987H2.24444C2.76563 22.3987 3.21115 22.4855 3.58102 22.6592C3.9565 22.833 4.24231 23.0796 4.43845 23.399C4.6402 23.7184 4.74107 24.1023 4.74107 24.5506V24.6851C4.74107 25.1223 4.6402 25.5033 4.43845 25.8284C4.24231 26.1478 3.9565 26.3944 3.58102 26.5681ZM2.85809 23.7184C2.70678 23.6344 2.52465 23.5923 2.31169 23.5923H1.37861V25.635H2.31169C2.52465 25.635 2.70678 25.593 2.85809 25.5089C3.01501 25.4249 3.1355 25.3072 3.21956 25.1559C3.30362 24.999 3.34565 24.8196 3.34565 24.6179C3.34565 24.4049 3.30362 24.2228 3.21956 24.0715C3.1355 23.9146 3.01501 23.7969 2.85809 23.7184Z" fill="black"/>
<path d="M59.5229 28.5856V22.4491H60.9015V28.5856H59.5229Z" fill="black"/>
<path d="M52.1287 22.4491V28.5856H55.9115V27.3751H53.5073V22.4491H52.1287Z" fill="black"/>
<path d="M34.7962 22.4491V28.5856H36.1748V26.1142H38.3773V24.9709H36.1748V23.5923H38.4781V22.4491H34.7962Z" fill="black"/>
<path d="M28.1288 28.5856V23.6512H26.4055V22.4491H31.2391V23.6512H29.5074V28.5856H28.1288Z" fill="black"/>
<path d="M18.2125 14.44C17.5094 13.6095 16.2857 13.5444 15.5053 14.3007L14.7273 15.0548L15.375 15.7916L16.1738 15.0174C16.5505 14.6522 17.135 14.6809 17.4781 15.0861C18.1912 15.9285 19.5261 16.0187 20.266 15.1447C20.6058 14.7432 21.1956 14.7432 21.5355 15.1447C22.2621 16.0031 23.5471 16.0031 24.2738 15.1447C24.6136 14.7432 25.2034 14.7432 25.5433 15.1447C26.27 16.0031 27.5549 16.0031 28.2816 15.1447C28.6214 14.7432 29.2112 14.7432 29.5511 15.1447C30.2778 16.0031 31.5627 16.0031 32.2894 15.1447C32.6292 14.7432 33.219 14.7432 33.5589 15.1447C34.2856 16.0031 35.5705 16.0031 36.2972 15.1447C36.637 14.7432 37.2268 14.7432 37.5667 15.1447C38.2934 16.0031 39.5783 16.0031 40.305 15.1447C40.6402 14.7487 41.2395 14.749 41.584 15.1559C42.2973 15.9986 43.5689 16.046 44.3226 15.2202L44.9298 14.5549L44.2392 13.8598L43.6124 14.5466C43.2624 14.9301 42.6643 14.9184 42.3184 14.5098C41.5967 13.6573 40.3022 13.6343 39.5706 14.4986C39.2307 14.9 38.6409 14.9 38.3011 14.4986C37.5744 13.6402 36.2895 13.6402 35.5628 14.4986C35.2229 14.9 34.6331 14.9 34.2933 14.4986C33.5666 13.6402 32.2817 13.6402 31.555 14.4986C31.2151 14.9 30.6253 14.9 30.2855 14.4986C29.5588 13.6402 28.2739 13.6402 27.5472 14.4986C27.2073 14.9 26.6175 14.9 26.2777 14.4986C25.551 13.6402 24.2661 13.6402 23.5394 14.4986C23.1995 14.9 22.6097 14.9 22.2699 14.4986C21.5432 13.6402 20.2582 13.6402 19.5316 14.4986C19.209 14.8796 18.5703 14.8627 18.2125 14.44Z" fill="black"/>
</svg>
