<svg width="176" height="72" viewBox="0 0 176 72" fill="none" xmlns="http://www.w3.org/2000/svg">
<path fill-rule="evenodd" clip-rule="evenodd" d="M145.753 17.5439C146.767 18.0096 147.951 18.2425 149.308 18.2425C150.664 18.2425 151.842 18.0096 152.842 17.5439C153.855 17.0644 154.691 16.4412 155.349 15.674C156.006 14.8932 156.499 14.0508 156.828 13.1467C157.157 12.2426 157.321 11.3728 157.321 10.5372V10.0851C157.321 9.15365 157.15 8.23587 156.807 7.33178C156.465 6.41399 155.958 5.58525 155.287 4.84554C154.616 4.10583 153.78 3.5168 152.78 3.07846C151.78 2.62641 150.623 2.40039 149.308 2.40039C147.993 2.40039 146.835 2.62641 145.835 3.07846C144.835 3.5168 143.999 4.10583 143.328 4.84554C142.657 5.58525 142.15 6.41399 141.808 7.33178C141.479 8.23587 141.315 9.15365 141.315 10.0851V10.5372C141.315 11.3728 141.472 12.2426 141.787 13.1467C142.116 14.0508 142.609 14.8932 143.267 15.674C143.924 16.4412 144.753 17.0644 145.753 17.5439ZM151.218 14.7289C150.657 14.9754 150.02 15.0987 149.308 15.0987C148.595 15.0987 147.958 14.9754 147.397 14.7289C146.835 14.4823 146.349 14.1398 145.938 13.7015C145.541 13.2631 145.239 12.7563 145.034 12.181C144.828 11.6057 144.726 10.9892 144.726 10.3317C144.726 9.63309 144.828 8.99612 145.034 8.4208C145.239 7.83177 145.541 7.32493 145.938 6.90028C146.349 6.46194 146.835 6.12633 147.397 5.89346C147.958 5.66059 148.595 5.54415 149.308 5.54415C150.02 5.54415 150.657 5.66059 151.218 5.89346C151.78 6.12633 152.26 6.46194 152.657 6.90028C153.068 7.32493 153.376 7.83177 153.581 8.4208C153.801 8.99612 153.91 9.63309 153.91 10.3317C153.91 10.9892 153.807 11.6057 153.602 12.181C153.397 12.7563 153.088 13.2631 152.677 13.7015C152.28 14.1398 151.794 14.4823 151.218 14.7289Z" fill="black" fill-opacity="0.72"/>
<path d="M169.141 17.8521L163.491 5.58522H163.203V17.8521H160.08V2.85241H165.607L171.258 15.1192H171.545V2.85241H174.71V17.8521H169.141Z" fill="black" fill-opacity="0.72"/>
<path d="M133.425 18.2425C132.069 18.2425 130.925 18.0302 129.993 17.6055C129.062 17.1672 128.356 16.5781 127.877 15.8384C127.397 15.085 127.158 14.222 127.158 13.2494H130.425C130.425 13.633 130.527 13.9892 130.733 14.3179C130.952 14.6467 131.281 14.9138 131.719 15.1193C132.158 15.311 132.726 15.4069 133.425 15.4069C134.055 15.4069 134.582 15.3247 135.007 15.1604C135.431 14.996 135.753 14.77 135.973 14.4823C136.192 14.1809 136.301 13.8385 136.301 13.4549C136.301 12.9755 136.096 12.5988 135.685 12.3248C135.274 12.0371 134.61 11.8522 133.692 11.77L132.562 11.6673C131.069 11.544 129.877 11.0783 128.986 10.2701C128.096 9.46187 127.651 8.3934 127.651 7.06466C127.651 6.10578 127.877 5.27703 128.329 4.57842C128.795 3.87981 129.438 3.34557 130.26 2.97572C131.082 2.59217 132.055 2.40039 133.178 2.40039C134.356 2.40039 135.363 2.60587 136.199 3.01681C137.048 3.41407 137.699 3.98254 138.151 4.72225C138.603 5.44826 138.829 6.30441 138.829 7.29069H135.541C135.541 6.92083 135.452 6.58522 135.274 6.28386C135.096 5.9688 134.829 5.71538 134.473 5.5236C134.13 5.33183 133.699 5.23594 133.178 5.23594C132.685 5.23594 132.267 5.31813 131.925 5.48251C131.596 5.64689 131.349 5.87291 131.185 6.16058C131.021 6.43454 130.938 6.7359 130.938 7.06466C130.938 7.48931 131.089 7.85916 131.39 8.17423C131.692 8.48929 132.185 8.67421 132.87 8.72901L134.021 8.83174C135.116 8.92763 136.082 9.16735 136.918 9.55091C137.753 9.92076 138.404 10.4344 138.87 11.092C139.349 11.7358 139.589 12.5234 139.589 13.4549C139.589 14.4138 139.335 15.2562 138.829 15.9823C138.335 16.6946 137.63 17.2494 136.712 17.6466C135.794 18.0439 134.699 18.2425 133.425 18.2425Z" fill="black" fill-opacity="0.72"/>
<path d="M116.083 17.6055C117.014 18.0302 118.158 18.2425 119.514 18.2425C120.788 18.2425 121.884 18.0439 122.802 17.6466C123.72 17.2494 124.425 16.6946 124.918 15.9823C125.425 15.2562 125.678 14.4138 125.678 13.4549C125.678 12.5234 125.439 11.7358 124.959 11.092C124.493 10.4344 123.843 9.92076 123.007 9.55091C122.172 9.16735 121.206 8.92763 120.11 8.83174L118.959 8.72901C118.274 8.67421 117.781 8.48929 117.48 8.17423C117.179 7.85916 117.028 7.48931 117.028 7.06466C117.028 6.7359 117.11 6.43454 117.274 6.16058C117.439 5.87291 117.685 5.64689 118.014 5.48251C118.357 5.31813 118.774 5.23594 119.268 5.23594C119.788 5.23594 120.22 5.33183 120.562 5.5236C120.918 5.71538 121.185 5.9688 121.363 6.28386C121.542 6.58522 121.631 6.92083 121.631 7.29069H124.918C124.918 6.30441 124.692 5.44826 124.24 4.72225C123.788 3.98254 123.137 3.41407 122.288 3.01681C121.452 2.60587 120.446 2.40039 119.268 2.40039C118.144 2.40039 117.172 2.59217 116.35 2.97572C115.528 3.34557 114.884 3.87981 114.418 4.57842C113.966 5.27703 113.74 6.10578 113.74 7.06466C113.74 8.3934 114.186 9.46187 115.076 10.2701C115.966 11.0783 117.158 11.544 118.651 11.6673L119.781 11.77C120.699 11.8522 121.363 12.0371 121.774 12.3248C122.185 12.5988 122.391 12.9755 122.391 13.4549C122.391 13.8385 122.281 14.1809 122.062 14.4823C121.843 14.77 121.521 14.996 121.096 15.1604C120.672 15.3247 120.144 15.4069 119.514 15.4069C118.816 15.4069 118.247 15.311 117.809 15.1193C117.37 14.9138 117.042 14.6467 116.822 14.3179C116.617 13.9892 116.514 13.633 116.514 13.2494H113.247C113.247 14.222 113.487 15.085 113.966 15.8384C114.446 16.5781 115.151 17.1672 116.083 17.6055Z" fill="black" fill-opacity="0.72"/>
<path fill-rule="evenodd" clip-rule="evenodd" d="M96.7214 3.30447C95.8036 2.92091 94.7214 2.72914 93.4749 2.72914H87.5778V17.8521H90.9476V13.044H93.4034L96.6803 17.8521H100.584L96.7569 12.4868C97.6474 12.1174 98.3342 11.5771 98.8172 10.8659C99.3241 10.1262 99.5775 9.20158 99.5775 8.09202V7.76326C99.5775 6.64 99.3309 5.70852 98.8378 4.96881C98.3446 4.2291 97.6392 3.67432 96.7214 3.30447ZM95.016 5.89344C94.6598 5.68797 94.2351 5.58523 93.742 5.58523H90.9476V10.3933H93.742C94.2351 10.3933 94.6598 10.2974 95.016 10.1057C95.3858 9.9002 95.6666 9.61938 95.8584 9.26323C96.0639 8.89337 96.1666 8.46872 96.1666 7.98928C96.1666 7.50984 96.0639 7.09205 95.8584 6.73589C95.6666 6.36604 95.3858 6.08522 95.016 5.89344Z" fill="black" fill-opacity="0.72"/>
<path fill-rule="evenodd" clip-rule="evenodd" d="M69.8818 17.8521L74.8337 2.85241H80.2788L85.4157 17.8521H81.9226L80.705 14.133H74.439L73.2516 17.8521H69.8818ZM77.9133 5.60577L79.7901 11.3385H75.3313L77.1616 5.60577H77.9133Z" fill="black" fill-opacity="0.72"/>
<path d="M58.211 17.5439C59.1836 18.0096 60.3479 18.2425 61.7041 18.2425C63.1424 18.2425 64.3821 17.9754 65.4232 17.4411C66.4779 16.8932 67.3067 16.1672 67.9094 15.2631C68.5258 14.3453 68.8957 13.3385 69.019 12.2426H65.6492C65.4985 13.133 65.0602 13.8316 64.3341 14.3385C63.6218 14.8453 62.7451 15.0987 61.7041 15.0987C61.0192 15.0987 60.4096 14.9891 59.8753 14.77C59.3411 14.5371 58.8891 14.2083 58.5192 13.7837C58.1631 13.3453 57.8891 12.8385 57.6973 12.2632C57.5192 11.6741 57.4302 11.0303 57.4302 10.3317C57.4302 9.6194 57.5192 8.97558 57.6973 8.40025C57.8891 7.81122 58.1562 7.30438 58.4987 6.87974C58.8548 6.45509 59.2932 6.12633 59.8137 5.89346C60.3342 5.66059 60.9301 5.54415 61.6013 5.54415C62.2725 5.54415 62.8753 5.66059 63.4095 5.89346C63.9574 6.12633 64.4026 6.45509 64.7451 6.87974C65.0875 7.30438 65.3067 7.81807 65.4026 8.4208H68.7929C68.6833 7.21534 68.3135 6.16742 67.6834 5.27703C67.0669 4.37295 66.2382 3.66748 65.1971 3.16065C64.1561 2.65381 62.9575 2.40039 61.6013 2.40039C60.3 2.40039 59.1699 2.62641 58.211 3.07846C57.2658 3.5168 56.4782 4.10583 55.848 4.84554C55.2316 5.58525 54.7727 6.41399 54.4714 7.33178C54.17 8.23587 54.0193 9.15365 54.0193 10.0851V10.5372C54.0193 11.3865 54.1631 12.2632 54.4508 13.1673C54.7522 14.0576 55.2111 14.8932 55.8275 15.674C56.4439 16.4412 57.2384 17.0644 58.211 17.5439Z" fill="black" fill-opacity="0.72"/>
<path d="M41.1578 17.8521L35.5073 5.58522H35.2196V17.8521H32.0964V2.85241H37.6237L43.2742 15.1192H43.5619V2.85241H46.7262V17.8521H41.1578Z" fill="black" fill-opacity="0.72"/>
<path d="M102.793 17.8521V2.85241H106.162V14.8932H112.039V17.8521H102.793Z" fill="black" fill-opacity="0.72"/>
<path d="M25.1097 2.85241V17.8521H28.4795V2.85241H25.1097Z" fill="black" fill-opacity="0.72"/>
<path d="M13.4055 17.8521V2.85241H16.7753V14.8932H22.6518V17.8521H13.4055Z" fill="black" fill-opacity="0.72"/>
<path d="M1 2.85241V17.8521H10.4313V15.0576H4.28759V11.6262H9.95869V8.83172H4.28759V5.64686H10.2874V2.85241H1Z" fill="black" fill-opacity="0.72"/>
<path fill-rule="evenodd" clip-rule="evenodd" d="M170.418 28.8386C169.404 28.4413 168.219 28.2427 166.863 28.2427H161.294V43.4484H166.863C168.219 43.4484 169.404 43.236 170.418 42.8114C171.431 42.3867 172.281 41.8251 172.966 41.1264C173.651 40.4141 174.158 39.6195 174.486 38.7428C174.829 37.8524 175 36.9551 175 36.051V35.5989C175 34.6263 174.829 33.7017 174.486 32.8249C174.158 31.9345 173.651 31.1468 172.966 30.4619C172.281 29.7769 171.431 29.2358 170.418 28.8386ZM168.938 31.6948C168.377 31.4893 167.746 31.3866 167.048 31.3866H164.664V40.3045H167.048C167.746 40.3045 168.377 40.2017 168.938 39.9963C169.5 39.7771 169.979 39.4757 170.377 39.0921C170.774 38.6949 171.075 38.2223 171.281 37.6743C171.486 37.1127 171.589 36.4962 171.589 35.825C171.589 35.1263 171.486 34.503 171.281 33.9551C171.075 33.4071 170.774 32.9414 170.377 32.5578C169.979 32.1742 169.5 31.8866 168.938 31.6948Z" fill="black" fill-opacity="0.72"/>
<path fill-rule="evenodd" clip-rule="evenodd" d="M148.55 28.366L143.598 43.3662H146.968L148.155 39.647H154.421L155.639 43.3662H159.132L153.995 28.366H148.55ZM153.506 36.8524L151.629 31.1194H150.878L149.047 36.8524H153.506Z" fill="black" fill-opacity="0.72"/>
<path d="M15.7655 43.3662L20.7905 35.5159L16.197 28.366H19.8957L22.8135 33.051H23.2861L26.1629 28.366H29.7588L25.0894 35.6431L30.2314 43.3662H26.5122L23.1012 38.0647H22.6081L19.3614 43.3662H15.7655Z" fill="black" fill-opacity="0.72"/>
<path d="M3.97949 42.9758C4.96581 43.4963 6.16445 43.7566 7.57543 43.7566C9.00011 43.7566 10.1988 43.4963 11.1714 42.9758C12.144 42.4415 12.8837 41.6881 13.3906 40.7155C13.8974 39.7428 14.1509 38.5921 14.1509 37.2634V28.366H10.781V37.3867C10.781 38.0579 10.6577 38.6332 10.4111 39.1127C10.1645 39.5922 9.80149 39.962 9.32203 40.2223C8.85627 40.4826 8.27407 40.6127 7.57543 40.6127C6.89049 40.6127 6.30829 40.4826 5.82883 40.2223C5.36307 39.962 5.00005 39.5922 4.73978 39.1127C4.4932 38.6195 4.36991 38.0442 4.36991 37.3867V28.366H1V37.2634C1 38.5921 1.25343 39.7428 1.76028 40.7155C2.26714 41.6881 3.00688 42.4415 3.97949 42.9758Z" fill="black" fill-opacity="0.72"/>
<path d="M132.61 43.3662V28.366H141.897V31.1605H135.897V34.3455H141.569V37.1401H135.897V40.5716H142.041V43.3662H132.61Z" fill="black" fill-opacity="0.72"/>
<path d="M120.946 28.366V43.3662H130.193V40.4072H124.316V28.366H120.946Z" fill="black" fill-opacity="0.72"/>
<path fill-rule="evenodd" clip-rule="evenodd" d="M28.473 69.5996C27.1168 69.5996 25.9319 69.3668 24.9181 68.901C23.9181 68.4215 23.0893 67.7982 22.4318 67.0311C21.7742 66.2503 21.2811 65.4078 20.9523 64.5036C20.6372 63.5995 20.4797 62.7296 20.4797 61.894V61.4419C20.4797 60.5104 20.6441 59.5926 20.9728 58.6884C21.3153 57.7706 21.8222 56.9418 22.4934 56.2021C23.1647 55.4624 24.0003 54.8733 25.0003 54.4349C26.0004 53.9829 27.1579 53.7568 28.473 53.7568C29.7881 53.7568 30.9457 53.9829 31.9457 54.4349C32.9457 54.8733 33.7813 55.4624 34.4526 56.2021C35.1238 56.9418 35.6307 57.7706 35.9732 58.6884C36.3156 59.5926 36.4869 60.5104 36.4869 61.4419V61.894C36.4869 62.7296 36.3225 63.5995 35.9937 64.5036C35.6649 65.4078 35.1718 66.2503 34.5142 67.0311C33.8567 67.7982 33.0211 68.4215 32.0073 68.901C31.0073 69.3668 29.8292 69.5996 28.473 69.5996ZM28.473 66.4557C29.1854 66.4557 29.8224 66.3325 30.384 66.0859C30.9594 65.8393 31.4457 65.4968 31.8429 65.0585C32.2539 64.6201 32.5621 64.1132 32.7676 63.5379C32.9731 62.9625 33.0759 62.3461 33.0759 61.6885C33.0759 60.9899 32.9663 60.3529 32.7471 59.7775C32.5416 59.1885 32.2334 58.6816 31.8224 58.2569C31.4251 57.8186 30.9457 57.4829 30.384 57.2501C29.8224 57.0172 29.1854 56.9007 28.473 56.9007C27.7607 56.9007 27.1237 57.0172 26.562 57.2501C26.0004 57.4829 25.514 57.8186 25.1031 58.2569C24.7058 58.6816 24.4044 59.1885 24.1989 59.7775C23.9935 60.3529 23.8907 60.9899 23.8907 61.6885C23.8907 62.3461 23.9935 62.9625 24.1989 63.5379C24.4044 64.1132 24.7058 64.6201 25.1031 65.0585C25.514 65.4968 26.0004 65.8393 26.562 66.0859C27.1237 66.3325 27.7607 66.4557 28.473 66.4557Z" fill="black" fill-opacity="0.72"/>
<path fill-rule="evenodd" clip-rule="evenodd" d="M111.283 69.5996C109.927 69.5996 108.742 69.3668 107.728 68.901C106.728 68.4215 105.899 67.7982 105.242 67.0311C104.584 66.2503 104.091 65.4078 103.762 64.5036C103.447 63.5995 103.29 62.7296 103.29 61.894V61.4419C103.29 60.5104 103.454 59.5926 103.783 58.6884C104.125 57.7706 104.632 56.9418 105.303 56.2021C105.975 55.4624 106.81 54.8733 107.81 54.4349C108.81 53.9829 109.968 53.7568 111.283 53.7568C112.598 53.7568 113.756 53.9829 114.756 54.4349C115.756 54.8733 116.591 55.4624 117.263 56.2021C117.934 56.9418 118.441 57.7706 118.783 58.6884C119.126 59.5926 119.297 60.5104 119.297 61.4419V61.894C119.297 62.7296 119.133 63.5995 118.804 64.5036C118.475 65.4078 117.982 66.2503 117.324 67.0311C116.667 67.7982 115.831 68.4215 114.817 68.901C113.817 69.3668 112.639 69.5996 111.283 69.5996ZM111.283 66.4557C111.995 66.4557 112.632 66.3325 113.194 66.0859C113.769 65.8393 114.256 65.4968 114.653 65.0585C115.064 64.6201 115.372 64.1132 115.578 63.5379C115.783 62.9625 115.886 62.3461 115.886 61.6885C115.886 60.9899 115.776 60.3529 115.557 59.7775C115.352 59.1885 115.043 58.6816 114.632 58.2569C114.235 57.8186 113.756 57.4829 113.194 57.2501C112.632 57.0172 111.995 56.9007 111.283 56.9007C110.571 56.9007 109.934 57.0172 109.372 57.2501C108.81 57.4829 108.324 57.8186 107.913 58.2569C107.516 58.6816 107.214 59.1885 107.009 59.7775C106.803 60.3529 106.701 60.9899 106.701 61.6885C106.701 62.3461 106.803 62.9625 107.009 63.5379C107.214 64.1132 107.516 64.6201 107.913 65.0585C108.324 65.4968 108.81 65.8393 109.372 66.0859C109.934 66.3325 110.571 66.4557 111.283 66.4557Z" fill="black" fill-opacity="0.72"/>
<path fill-rule="evenodd" clip-rule="evenodd" d="M167.049 69.5996C165.693 69.5996 164.508 69.3668 163.495 68.901C162.495 68.4215 161.666 67.7982 161.008 67.0311C160.351 66.2503 159.858 65.4078 159.529 64.5036C159.214 63.5995 159.056 62.7296 159.056 61.894V61.4419C159.056 60.5104 159.221 59.5926 159.549 58.6884C159.892 57.7706 160.399 56.9418 161.07 56.2021C161.741 55.4624 162.577 54.8733 163.577 54.4349C164.577 53.9829 165.734 53.7568 167.049 53.7568C168.365 53.7568 169.522 53.9829 170.522 54.4349C171.522 54.8733 172.358 55.4624 173.029 56.2021C173.7 56.9418 174.207 57.7706 174.55 58.6884C174.892 59.5926 175.063 60.5104 175.063 61.4419V61.894C175.063 62.7296 174.899 63.5995 174.57 64.5036C174.241 65.4078 173.748 66.2503 173.091 67.0311C172.433 67.7982 171.597 68.4215 170.584 68.901C169.584 69.3668 168.406 69.5996 167.049 69.5996ZM167.049 66.4557C167.762 66.4557 168.399 66.3325 168.96 66.0859C169.536 65.8393 170.022 65.4968 170.419 65.0585C170.83 64.6201 171.139 64.1132 171.344 63.5379C171.55 62.9625 171.652 62.3461 171.652 61.6885C171.652 60.9899 171.543 60.3529 171.324 59.7775C171.118 59.1885 170.81 58.6816 170.399 58.2569C170.002 57.8186 169.522 57.4829 168.96 57.2501C168.399 57.0172 167.762 56.9007 167.049 56.9007C166.337 56.9007 165.7 57.0172 165.138 57.2501C164.577 57.4829 164.09 57.8186 163.68 58.2569C163.282 58.6816 162.981 59.1885 162.775 59.7775C162.57 60.3529 162.467 60.9899 162.467 61.6885C162.467 62.3461 162.57 62.9625 162.775 63.5379C162.981 64.1132 163.282 64.6201 163.68 65.0585C164.09 65.4968 164.577 65.8393 165.138 66.0859C165.7 66.3325 166.337 66.4557 167.049 66.4557Z" fill="black" fill-opacity="0.72"/>
<path fill-rule="evenodd" clip-rule="evenodd" d="M54.7597 54.661C53.8419 54.2774 52.7597 54.0856 51.5131 54.0856H45.6157V69.2092H48.9856V64.4009H51.4416L54.7186 69.2092H58.6228L54.7952 63.8437C55.6858 63.4743 56.3726 62.934 56.8557 62.2228C57.3625 61.483 57.616 60.5583 57.616 59.4487V59.12C57.616 57.9966 57.3694 57.0651 56.8762 56.3254C56.3831 55.5856 55.6776 55.0308 54.7597 54.661ZM53.0542 57.25C52.698 57.0446 52.2734 56.9418 51.7802 56.9418H48.9856V61.7502H51.7802C52.2734 61.7502 52.698 61.6543 53.0542 61.4625C53.4241 61.257 53.7049 60.9762 53.8967 60.62C54.1022 60.2501 54.2049 59.8254 54.2049 59.346C54.2049 58.8665 54.1022 58.4487 53.8967 58.0925C53.7049 57.7227 53.4241 57.4418 53.0542 57.25Z" fill="black" fill-opacity="0.72"/>
<path fill-rule="evenodd" clip-rule="evenodd" d="M9.75362 64.2776C8.84949 64.7023 7.76042 64.9146 6.48642 64.9146H4.36994V69.2092H1V54.0856H6.48642C7.76042 54.0856 8.84949 54.2979 9.75362 54.7226C10.6714 55.1473 11.3701 55.75 11.8496 56.5309C12.3427 57.3117 12.5893 58.2501 12.5893 59.346V59.6748C12.5893 60.7433 12.3427 61.6748 11.8496 62.4693C11.3701 63.2502 10.6714 63.8529 9.75362 64.2776ZM7.98645 57.3117C7.61658 57.1062 7.17137 57.0035 6.65081 57.0035H4.36994V61.9967H6.65081C7.17137 61.9967 7.61658 61.894 7.98645 61.6885C8.37002 61.483 8.66455 61.1953 8.87004 60.8255C9.07552 60.4419 9.17826 60.0035 9.17826 59.5104C9.17826 58.9898 9.07552 58.5446 8.87004 58.1747C8.66455 57.7912 8.37002 57.5035 7.98645 57.3117Z" fill="black" fill-opacity="0.72"/>
<path d="M146.5 69.2092V54.2089H149.87V69.2092H146.5Z" fill="black" fill-opacity="0.72"/>
<path d="M128.426 54.2089V69.2092H137.672V66.2502H131.796V54.2089H128.426Z" fill="black" fill-opacity="0.72"/>
<path d="M86.0575 54.2089V69.2092H89.4274V63.168H94.8111V60.3734H89.4274V57.0035H95.0576V54.2089H86.0575Z" fill="black" fill-opacity="0.72"/>
<path d="M69.7592 69.2092V57.1473H65.5468V54.2089H77.3621V57.1473H73.1292V69.2092H69.7592Z" fill="black" fill-opacity="0.72"/>
<path d="M45.5195 34.631C43.8009 32.6008 40.8094 32.4415 38.9019 34.2904L37 36.1338L38.5833 37.9348L40.5359 36.0422C41.4568 35.1496 42.8856 35.2197 43.7242 36.2103C45.4673 38.2694 48.7304 38.49 50.5391 36.3534C51.3698 35.3721 52.8115 35.3721 53.6422 36.3534C55.4186 38.4518 58.5596 38.4518 60.3359 36.3534C61.1666 35.3721 62.6084 35.3721 63.4391 36.3534C65.2154 38.4518 68.3564 38.4518 70.1328 36.3534C70.9635 35.3721 72.4052 35.3721 73.2359 36.3534C75.0123 38.4518 78.1533 38.4518 79.9296 36.3534C80.7603 35.3721 82.2021 35.3721 83.0328 36.3534C84.8091 38.4518 87.9501 38.4518 89.7265 36.3534C90.5572 35.3721 91.9989 35.3721 92.8296 36.3534C94.606 38.4518 97.747 38.4518 99.5233 36.3534C100.343 35.3855 101.808 35.3862 102.65 36.3809C104.393 38.4407 107.502 38.5568 109.344 36.5381L110.828 34.9117L109.14 33.2127L107.608 34.8915C106.752 35.8289 105.291 35.8004 104.445 34.8016C102.681 32.7176 99.5165 32.6614 97.7281 34.7741C96.8973 35.7554 95.4556 35.7554 94.6249 34.7741C92.8485 32.6757 89.7076 32.6757 87.9312 34.7741C87.1005 35.7554 85.6588 35.7554 84.828 34.7741C83.0517 32.6757 79.9107 32.6757 78.1344 34.7741C77.3036 35.7554 75.8619 35.7554 75.0312 34.7741C73.2548 32.6757 70.1139 32.6757 68.3375 34.7741C67.5068 35.7554 66.0651 35.7554 65.2343 34.7741C63.458 32.6757 60.317 32.6757 58.5407 34.7741C57.7099 35.7554 56.2682 35.7554 55.4375 34.7741C53.6611 32.6757 50.5202 32.6757 48.7438 34.7741C47.9554 35.7054 46.3941 35.6642 45.5195 34.631Z" fill="black" fill-opacity="0.72"/>
</svg>
