<svg width="430" height="318" viewBox="0 0 430 318" fill="none" xmlns="http://www.w3.org/2000/svg">
<path d="M430 318H359V312H430V318Z" fill="#0020F5"/>
<path d="M106 318H0V312H106V318Z" fill="#0020F5"/>
<path d="M430 292H273V286H430V292Z" fill="#0020F5"/>
<path d="M185 292H0V286H185V292Z" fill="#0020F5"/>
<path d="M430 266H226V260H430V266Z" fill="#0020F5"/>
<path d="M103 266H0V260H103V266Z" fill="#0020F5"/>
<path d="M430 240H325V234H430V240Z" fill="#0020F5"/>
<path d="M293 240H0V234H293V240Z" fill="#0020F5"/>
<path d="M237 214H120V208H237V214Z" fill="#0020F5"/>
<path d="M430 214H276V208H430V214Z" fill="#0020F5"/>
<path d="M58 214H0V208H58V214Z" fill="#0020F5"/>
<path d="M430 188H379V182H430V188Z" fill="#0020F5"/>
<path d="M339 188H0V182H339V188Z" fill="#0020F5"/>
<path d="M430 162H267V156H430V162Z" fill="#0020F5"/>
<path d="M65 162H0V156H65V162Z" fill="#0020F5"/>
<path d="M430 136H379V130H430V136Z" fill="#0020F5"/>
<path d="M175 136H0V130H175V136Z" fill="#0020F5"/>
<path d="M430 110H223V104H430V110Z" fill="#0020F5"/>
<path d="M77 110H0V104H77V110Z" fill="#0020F5"/>
<path d="M253 84H136V78H253V84Z" fill="#0020F5"/>
<path d="M430 84H370V78H430V84Z" fill="#0020F5"/>
<path d="M99 84H0V78H99V84Z" fill="#0020F5"/>
<path d="M146 58H74V52H146V58Z" fill="#0020F5"/>
<path d="M281 58H171V52H281V58Z" fill="#0020F5"/>
<path d="M430 58H316V52H430V58Z" fill="#0020F5"/>
<path d="M44 58H0V52H44V58Z" fill="#0020F5"/>
<path d="M344 32H198V26H344V32Z" fill="#0020F5"/>
<path d="M430 32H386V26H430V32Z" fill="#0020F5"/>
<path d="M118 32H0V26H118V32Z" fill="#0020F5"/>
<path d="M430 6H269V0H430V6Z" fill="#0020F5"/>
<path d="M45 6H0V0H45V6Z" fill="#0020F5"/>
</svg>
