<svg width="740" height="318" viewBox="0 0 740 318" fill="none" xmlns="http://www.w3.org/2000/svg">
<path d="M740 318H527V312H740V318Z" fill="#0020F5"/>
<path d="M274 318H0V312H274V318Z" fill="#0020F5"/>
<path d="M740 292H441V286H740V292Z" fill="#0020F5"/>
<path d="M353 292H0V286H353V292Z" fill="#0020F5"/>
<path d="M740 266H586V260H740V266Z" fill="#0020F5"/>
<path d="M127 266H0V260H127V266Z" fill="#0020F5"/>
<path d="M740 240H493V234H740V240Z" fill="#0020F5"/>
<path d="M461 240H0V234H461V240Z" fill="#0020F5"/>
<path d="M405 214H288V208H405V214Z" fill="#0020F5"/>
<path d="M740 214H616V208H740V214Z" fill="#0020F5"/>
<path d="M226 214H0V208H226V214Z" fill="#0020F5"/>
<path d="M531 188H174V182H531V188Z" fill="#0020F5"/>
<path d="M740 188H571V182H740V188Z" fill="#0020F5"/>
<path d="M125 188H0V182H125V188Z" fill="#0020F5"/>
<path d="M233 162H102V156H233V162Z" fill="#0020F5"/>
<path d="M740 162H483V156H740V162Z" fill="#0020F5"/>
<path d="M75 162H0V156H75V162Z" fill="#0020F5"/>
<path d="M740 136H547V130H740V136Z" fill="#0020F5"/>
<path d="M127 136H0V130H127V136Z" fill="#0020F5"/>
<path d="M620 110H391V104H620V110Z" fill="#0020F5"/>
<path d="M740 110H657V104H740V110Z" fill="#0020F5"/>
<path d="M221 110H0V104H221V110Z" fill="#0020F5"/>
<path d="M405 84H288V78H405V84Z" fill="#0020F5"/>
<path d="M740 84H586V78H740V84Z" fill="#0020F5"/>
<path d="M127 84H0V78H127V84Z" fill="#0020F5"/>
<path d="M250 58H178V52H250V58Z" fill="#0020F5"/>
<path d="M449 58H339V52H449V58Z" fill="#0020F5"/>
<path d="M740 58H484V52H740V58Z" fill="#0020F5"/>
<path d="M82 58H0V52H82V58Z" fill="#0020F5"/>
<path d="M512 32H366V26H512V32Z" fill="#0020F5"/>
<path d="M740 32H554V26H740V32Z" fill="#0020F5"/>
<path d="M286 32H0V26H286V32Z" fill="#0020F5"/>
<path d="M740 6H437V0H740V6Z" fill="#0020F5"/>
<path d="M213 6H0V0H213V6Z" fill="#0020F5"/>
</svg>
