<svg width="1920" height="318" viewBox="0 0 1920 318" fill="none" xmlns="http://www.w3.org/2000/svg">
<path d="M557 318H0V312H557V318Z" fill="#0020F5"/>
<path d="M1210 318H975V312H1210V318Z" fill="#0020F5"/>
<path d="M1522 318H1287V312H1522V318Z" fill="#0020F5"/>
<path d="M1920 318H1590V312H1920V318Z" fill="#0020F5"/>
<path d="M400 292H0V286H400V292Z" fill="#0020F5"/>
<path d="M849 292H449V286H849V292Z" fill="#0020F5"/>
<path d="M1706 292H1199V286H1706V292Z" fill="#0020F5"/>
<path d="M1920 292H1749V286H1920V292Z" fill="#0020F5"/>
<path d="M623 266H0V260H623V266Z" fill="#0020F5"/>
<path d="M1920 266H1320V260H1920V266Z" fill="#0020F5"/>
<path d="M119 240H0V234H119V240Z" fill="#0020F5"/>
<path d="M765 240H164V234H765V240Z" fill="#0020F5"/>
<path d="M1076 240H852V234H1076V240Z" fill="#0020F5"/>
<path d="M1920 240H1227V234H1920V240Z" fill="#0020F5"/>
<path d="M229 214H0V208H229V214Z" fill="#0020F5"/>
<path d="M487 214H312V208H487V214Z" fill="#0020F5"/>
<path d="M925 214H808V208H925V214Z" fill="#0020F5"/>
<path d="M1920 214H1371V208H1920V214Z" fill="#0020F5"/>
<path d="M501 188H0V182H501V188Z" fill="#0020F5"/>
<path d="M1304 188H908V182H1304V188Z" fill="#0020F5"/>
<path d="M1920 188H1438V182H1920V188Z" fill="#0020F5"/>
<path d="M437 162H0V156H437V162Z" fill="#0020F5"/>
<path d="M690 162H544V156H690V162Z" fill="#0020F5"/>
<path d="M1056 162H738V156H1056V162Z" fill="#0020F5"/>
<path d="M1623 162H1147V156H1623V162Z" fill="#0020F5"/>
<path d="M1920 162H1699V156H1920V162Z" fill="#0020F5"/>
<path d="M623 136H0V130H623V136Z" fill="#0020F5"/>
<path d="M1920 136H1545V130H1920V136Z" fill="#0020F5"/>
<path d="M361 110H0V104H361V110Z" fill="#0020F5"/>
<path d="M717 110H471V104H717V110Z" fill="#0020F5"/>
<path d="M1164 110H935V104H1164V110Z" fill="#0020F5"/>
<path d="M1920 110H1439V104H1920V110Z" fill="#0020F5"/>
<path d="M623 84H0V78H623V84Z" fill="#0020F5"/>
<path d="M1920 84H1320V78H1920V84Z" fill="#0020F5"/>
<path d="M136 58H0V52H136V58Z" fill="#0020F5"/>
<path d="M462 58H246V52H462V58Z" fill="#0020F5"/>
<path d="M697 58H539V52H697V58Z" fill="#0020F5"/>
<path d="M865 58H793V52H865V58Z" fill="#0020F5"/>
<path d="M1097 58H953V52H1097V58Z" fill="#0020F5"/>
<path d="M1920 58H1218V52H1920V58Z" fill="#0020F5"/>
<path d="M274 32H0V26H274V32Z" fill="#0020F5"/>
<path d="M518 32H346V26H518V32Z" fill="#0020F5"/>
<path d="M887 32H574V26H887V32Z" fill="#0020F5"/>
<path d="M1372 32H1057V26H1372V32Z" fill="#0020F5"/>
<path d="M1780 32H1439V26H1780V32Z" fill="#0020F5"/>
<path d="M1920 32H1817V26H1920V32Z" fill="#0020F5"/>
<path d="M709 6H0V0H709V6Z" fill="#0020F5"/>
<path d="M1920 6H1171V0H1920V6Z" fill="#0020F5"/>
</svg>
