<svg width="48" height="48" viewBox="0 0 48 48" fill="none" xmlns="http://www.w3.org/2000/svg">
<circle cx="24" cy="24" r="22.4615" stroke="black" stroke-width="3.07692"/>
<path d="M36.3076 15.3847C31.5495 15.3848 27.6924 19.2419 27.6924 24C27.6924 28.7581 31.5495 32.6152 36.3076 32.6152V36.3076C29.5103 36.3075 24 30.7973 24 24C24 17.2027 29.5103 11.6924 36.3076 11.6924V15.3847Z" fill="black"/>
<path d="M21.5383 15.3847C17.4139 15.3847 13.9684 18.2833 13.1233 22.1542H19.6926V25.8466H13.1233C13.9687 29.7171 17.4142 32.6151 21.5383 32.6152V36.3075C14.741 36.3075 9.23071 30.7972 9.23071 23.9999C9.23075 17.2026 14.741 11.6923 21.5383 11.6923V15.3847Z" fill="black"/>
<circle cx="45.384" cy="45.3839" r="2.61614" fill="#EA333E"/>
</svg>
