<svg width="48" height="48" viewBox="0 0 48 48" fill="none" xmlns="http://www.w3.org/2000/svg">
<g clip-path="url(#clip0_10141_45416)">
<path d="M24 46.4611C36.4052 46.4611 46.4615 36.4047 46.4615 23.9996C46.4615 11.5944 36.4052 1.53809 24 1.53809C11.5949 1.53809 1.53851 11.5944 1.53851 23.9996C1.53851 36.4047 11.5949 46.4611 24 46.4611Z" fill="white" stroke="black" stroke-width="3.07692"/>
<path d="M36.3076 15.3847C31.5495 15.3848 27.6924 19.2419 27.6924 24C27.6924 28.7581 31.5495 32.6152 36.3076 32.6152V36.3076C29.5103 36.3075 24 30.7973 24 24C24 17.2027 29.5103 11.6924 36.3076 11.6924V15.3847Z" fill="black"/>
<path d="M21.5383 15.3848C17.4139 15.3848 13.9684 18.2834 13.1233 22.1543H19.6926V25.8467H13.1233C13.9687 29.7172 17.4142 32.6152 21.5383 32.6153V36.3076C14.741 36.3076 9.23071 30.7973 9.23071 24C9.23075 17.2027 14.741 11.6924 21.5383 11.6924V15.3848Z" fill="black"/>
<path d="M45.384 47.9999C46.8288 47.9999 48.0001 46.8286 48.0001 45.3837C48.0001 43.9389 46.8288 42.7676 45.384 42.7676C43.9391 42.7676 42.7679 43.9389 42.7679 45.3837C42.7679 46.8286 43.9391 47.9999 45.384 47.9999Z" fill="#EA333E"/>
</g>
<defs>
<clipPath id="clip0_10141_45416">
<rect width="48" height="48" fill="white"/>
</clipPath>
</defs>
</svg>
